<?xml version="1.0" standalone="no"?><!-- Generator: Gravit.io --><svg xmlns="http://www.w3.org/2000/svg" xmlns:xlink="http://www.w3.org/1999/xlink" style="isolation:isolate" viewBox="873 642.335 68.008 68.005" width="68.008" height="68.005"><defs><clipPath id="_clipPath_orDDpFqqH9QH9KvN6FqBehT7YwSp8tJV"><rect x="873" y="642.335" width="68.008" height="68.005"/></clipPath></defs><g clip-path="url(#_clipPath_orDDpFqqH9QH9KvN6FqBehT7YwSp8tJV)"><g><path d=" M 906.953 710.34 C 889.493 710.315 874.891 697.07 873.168 679.695 C 871.445 662.321 883.162 646.466 900.276 643.012 C 917.391 639.558 934.339 649.629 939.489 666.311 C 944.639 682.994 936.316 700.866 920.233 707.66 C 916.032 709.438 911.515 710.349 906.953 710.34 Z  M 924.503 668 C 922.24 668.039 920.084 668.97 918.503 670.59 L 901.313 687.73 C 899.809 689.205 898.895 691.179 898.743 693.28 C 898.559 695.143 899.183 696.995 900.457 698.366 C 901.731 699.737 903.532 700.496 905.403 700.45 C 905.673 700.45 905.933 700.45 906.203 700.45 C 908.194 700.229 910.048 699.328 911.453 697.9 L 928.593 680.72 C 930.099 679.246 931.013 677.272 931.163 675.17 C 931.354 673.306 930.732 671.45 929.456 670.077 C 928.181 668.704 926.376 667.947 924.503 668 Z  M 908.203 651.8 C 906.301 651.788 904.474 652.541 903.133 653.89 L 884.623 672.39 C 881.834 675.195 881.834 679.725 884.623 682.53 C 887.428 685.319 891.958 685.319 894.763 682.53 L 913.273 664.01 C 915.32 661.961 915.93 658.881 914.821 656.206 C 913.711 653.531 911.099 651.788 908.203 651.79 L 908.203 651.8 Z " fill="rgb(255,255,255)"/></g></g></svg>