<svg id="Layer_1" data-name="Layer 1" xmlns="http://www.w3.org/2000/svg" viewBox="0 0 453.79 78.34"><defs><style>.cls-1{isolation:isolate;}.cls-2{fill:#fff;}</style></defs><title>prompt-ub-logo-main</title><g class="cls-1"><g class="cls-1"><path class="cls-2" d="M133.93,35.57v33a7.4,7.4,0,0,1-14.73,1.14c-2.85,3.14-8.07,6.46-15.77,6.46-10.45,0-15.1-5.89-15.1-14.35V35.57a7.32,7.32,0,0,1,14.63,0V55.81c0,5.51,2.85,7.41,7.6,7.41a11,11,0,0,0,8.74-4.47V35.57a7.32,7.32,0,0,1,14.63,0Z" transform="translate(0 -6.41)"></path><path class="cls-2" d="M187.89,42.51v26a7.32,7.32,0,1,1-14.63,0v-20c0-5.61-2.95-7.61-7.51-7.61a11.32,11.32,0,0,0-8.93,4.47V68.54a7.32,7.32,0,1,1-14.63,0v-33a7.3,7.3,0,0,1,7.32-7.5,7.42,7.42,0,0,1,7.41,6.55A20.64,20.64,0,0,1,172.69,28C183.14,28,187.89,34.05,187.89,42.51Z" transform="translate(0 -6.41)"></path><path class="cls-2" d="M195.11,14.77a8.36,8.36,0,0,1,16.72,0,8.36,8.36,0,1,1-16.72,0Zm1,53.77v-33a7.32,7.32,0,0,1,14.63,0v33a7.32,7.32,0,1,1-14.63,0Z" transform="translate(0 -6.41)"></path><path class="cls-2" d="M267.5,52c0,15.58-8.93,24.13-20.24,24.13a17.09,17.09,0,0,1-13.39-6.27c-.48,3.42-3.9,6-7.51,6A7.39,7.39,0,0,1,219,68.54V18.09a7.32,7.32,0,0,1,14.64,0V34.53A16.63,16.63,0,0,1,247.26,28C258.66,28,267.5,37,267.5,52Zm-14.92,0c0-6.84-4.37-11.12-10.16-11.12a11.67,11.67,0,0,0-8.74,4.18V59.13c1.8,2.47,5.6,4.09,8.74,4.09C248.21,63.22,252.58,58.94,252.58,52Z" transform="translate(0 -6.41)"></path><path class="cls-2" d="M269.77,52c0-12.92,9.41-24,25-24,15.77,0,25.08,11.12,25.08,24s-9.31,24.13-25.08,24.13C279.18,76.14,269.77,64.93,269.77,52Zm35.06,0c0-6.08-3.61-11.12-10.07-11.12s-9.88,5-9.88,11.12,3.51,11.21,9.88,11.21S304.83,58.18,304.83,52Z" transform="translate(0 -6.41)"></path><path class="cls-2" d="M366.86,46.31V68.16a7.47,7.47,0,0,1-7.31,7.7,7.78,7.78,0,0,1-7.41-5.42c-2.76,3.42-8.27,5.7-14.16,5.7-7,0-15.77-4.75-15.77-15.1,0-11.12,8.74-14.45,15.77-14.45,6.08,0,11.5,1.91,14.25,5.33v-5.8c0-4-3.42-6.65-9.31-6.65a19.33,19.33,0,0,0-9.4,2.47,5.65,5.65,0,0,1-2.47.66,5.47,5.47,0,0,1-5.42-5.41,5.55,5.55,0,0,1,2.85-4.75,34.48,34.48,0,0,1,17-4.47C356.51,28,366.86,32.06,366.86,46.31ZM352.23,63.22V59.13c-1.52-2.09-4.94-3.23-8.17-3.23-3.89,0-7.31,1.72-7.31,5.32s3.42,5.32,7.31,5.32C347.29,66.54,350.71,65.41,352.23,63.22Z" transform="translate(0 -6.41)"></path><path class="cls-2" d="M405.24,34.53c0,3.7-2,6.74-6.36,7.31-2.76.38-7.22,1.43-9.12,4.09V68.54a7.32,7.32,0,1,1-14.63,0V35.86a7.38,7.38,0,0,1,7.31-7.6,7.19,7.19,0,0,1,7.41,6.46c1.52-2.19,3.52-4.56,5.89-5.7a8.57,8.57,0,0,1,3.33-.86A6.09,6.09,0,0,1,405.24,34.53Z" transform="translate(0 -6.41)"></path><path class="cls-2" d="M453.79,18.09V68.54a7.45,7.45,0,0,1-7.32,7.6,7.72,7.72,0,0,1-7.41-6.27,17.21,17.21,0,0,1-13.39,6.27c-11.31,0-20.33-8.55-20.33-24.13,0-15,8.83-24,20.33-24a16.75,16.75,0,0,1,13.58,6.56V18.09a7.27,7.27,0,1,1,14.54,0ZM439.25,59V45a12,12,0,0,0-8.83-4.09c-5.8,0-10.07,4.28-10.07,11.12s4.27,11.21,10.07,11.21A12,12,0,0,0,439.25,59Z" transform="translate(0 -6.41)"></path></g></g><path class="cls-2" d="M34.13,84.75a34,34,0,1,1,13.28-2.68A33.9,33.9,0,0,1,34.13,84.75ZM51.68,42.41a8.59,8.59,0,0,0-6,2.59L28.49,62.14a8.65,8.65,0,0,0-2.57,5.55,6.53,6.53,0,0,0,6.66,7.17c.27,0,.53,0,.8,0a8.71,8.71,0,0,0,5.25-2.55L55.77,55.13a8.62,8.62,0,0,0,2.57-5.55,6.51,6.51,0,0,0-6.66-7.17Zm-16.3-16.2a7.09,7.09,0,0,0-5.07,2.09L11.8,46.8a7.19,7.19,0,0,0,0,10.14,7.19,7.19,0,0,0,10.14,0L40.45,38.42A7.16,7.16,0,0,0,35.38,26.2Z" transform="translate(0 -6.41)"></path></svg>