<svg id="Layer_1" data-name="Layer 1" xmlns="http://www.w3.org/2000/svg" viewBox="0 0 305.93 54.58"><defs><style>.cls-1{isolation:isolate;}.cls-2{fill:#7c4bff;}</style></defs><title>uniboard-2</title><g id="Group_46" data-name="Group 46"><g class="cls-1"><path class="cls-2" d="M85.12,42.8a9.78,9.78,0,0,1-8.39,4.8c-6.5,0-10.7-3.2-10.7-11.5V21.6a4.05,4.05,0,0,1,4.3-3.8,4.12,4.12,0,0,1,4.3,3.8V33.5c0,3.8,1.4,5.7,5,5.7,3,0,5.3-1.4,5.3-5.8V21.6a4.05,4.05,0,0,1,4.3-3.8,4.12,4.12,0,0,1,4.3,3.8V43.5a4.19,4.19,0,0,1-4.3,3.8,4.06,4.06,0,0,1-4.3-3.8v-.7Z" transform="translate(0 -2)"/><path class="cls-2" d="M108.23,22.3a9.66,9.66,0,0,1,8.39-4.8c6.5,0,10.7,4,10.7,12.3V43.6a4.05,4.05,0,0,1-4.3,3.8,4.12,4.12,0,0,1-4.3-3.8V31.7c0-3.8-2.1-5.8-5-5.8s-5.3,1.5-5.3,5.9V43.6a4.05,4.05,0,0,1-4.3,3.8,4.12,4.12,0,0,1-4.3-3.8V21.7a4.19,4.19,0,0,1,4.3-3.8,4.06,4.06,0,0,1,4.3,3.8v.6Z" transform="translate(0 -2)"/><path class="cls-2" d="M137.23,2.3a5.15,5.15,0,0,1,5.3,5,5.36,5.36,0,0,1-10.7,0A5.17,5.17,0,0,1,137.23,2.3Zm4.29,41.2a4.05,4.05,0,0,1-4.3,3.8,4.12,4.12,0,0,1-4.3-3.8V21.6a4.19,4.19,0,0,1,4.3-3.8,4.06,4.06,0,0,1,4.3,3.8Z" transform="translate(0 -2)"/><path class="cls-2" d="M164.82,17.5c7.4,0,14.11,5.4,14.11,15s-6.7,15.1-14.11,15.1a10.38,10.38,0,0,1-8.7-4.6v.6a4.19,4.19,0,0,1-4.3,3.8,4.06,4.06,0,0,1-4.3-3.8V6a4.05,4.05,0,0,1,4.3-3.8,4.12,4.12,0,0,1,4.3,3.8V22.3A10.55,10.55,0,0,1,164.82,17.5Zm-1.7,7.7a7.3,7.3,0,0,0,0,14.6c4.31,0,6.81-3.5,6.81-7.3S167.43,25.2,163.12,25.2Z" transform="translate(0 -2)"/><path class="cls-2" d="M181.82,32.4c0-9.1,6.8-14.9,15.2-14.9s15.3,5.8,15.3,14.9-6.8,15.1-15.3,15.1S181.82,41.5,181.82,32.4Zm21.8,0a6.55,6.55,0,1,0-13.1,0,6.55,6.55,0,1,0,13.1,0Z" transform="translate(0 -2)"/><path class="cls-2" d="M238,21.6a4.19,4.19,0,0,1,4.3-3.8,4.06,4.06,0,0,1,4.3,3.8V43.5a4.05,4.05,0,0,1-4.3,3.8,4.12,4.12,0,0,1-4.3-3.8v-.6a10.38,10.38,0,0,1-8.7,4.6c-7.39,0-14.1-5.5-14.1-15.1s6.7-15,14.1-15a10.65,10.65,0,0,1,8.7,4.7Zm-7,18.3a7.3,7.3,0,0,0,0-14.6c-4.3,0-6.8,3.5-6.8,7.3S226.62,39.9,231,39.9Z" transform="translate(0 -2)"/><path class="cls-2" d="M274.12,22.3c-.3,2.2-2.39,3.2-4.3,3.2-.6,0-1.6-.1-2.1-.1-4.8,0-6.4,3.7-6.6,11v7.1a4.05,4.05,0,0,1-4.3,3.8,4.12,4.12,0,0,1-4.3-3.8V21.6a4.19,4.19,0,0,1,4.3-3.8,4.06,4.06,0,0,1,4.3,3.8v3.2c1.6-5.4,4.6-7.3,7.6-7.3S274.62,18.2,274.12,22.3Z" transform="translate(0 -2)"/><path class="cls-2" d="M297.32,5.8a4.19,4.19,0,0,1,4.3-3.8,4.07,4.07,0,0,1,4.31,3.8V43.4a4.06,4.06,0,0,1-4.31,3.8,4.12,4.12,0,0,1-4.3-3.8v-.6a10.36,10.36,0,0,1-8.7,4.6c-7.39,0-14.1-5.5-14.1-15.1s6.7-15,14.1-15a10.65,10.65,0,0,1,8.7,4.7Zm-7,34.1a7.3,7.3,0,0,0,0-14.6c-4.3,0-6.8,3.5-6.8,7.3S285.93,39.9,290.32,39.9Z" transform="translate(0 -2)"/></g><g id="Group_45" data-name="Group 45"><path id="Exclusion_1" data-name="Exclusion 1" class="cls-2" d="M24.6,56.58a24.73,24.73,0,1,1,9.6-2A21.51,21.51,0,0,1,24.6,56.58Zm12.7-30.5A6.31,6.31,0,0,0,32.9,28L20.6,40.28a6.82,6.82,0,0,0-1.9,4,4.72,4.72,0,0,0,4.2,5.2h1.2a6.76,6.76,0,0,0,3.8-1.8l12.4-12.4c2.3-2.3,2.5-5.8.5-7.8A5.18,5.18,0,0,0,37.3,26.08ZM25.5,14.38a5.14,5.14,0,0,0-3.7,1.5L8.5,29.27a5.17,5.17,0,0,0,7.3,7.31h0l13.4-13.4a5.19,5.19,0,0,0,0-7.3A5.14,5.14,0,0,0,25.5,14.38Z" transform="translate(0 -2)"/></g></g></svg>