<?xml version="1.0" standalone="no"?><!-- Generator: Gravit.io --><svg xmlns="http://www.w3.org/2000/svg" xmlns:xlink="http://www.w3.org/1999/xlink" style="isolation:isolate" viewBox="0 0 715 169" width="715" height="169"><defs><clipPath id="_clipPath_fvHEQh14P9Jsyyg6uuTsvMaZqzHriwLl"><rect width="715" height="169"/></clipPath></defs><g clip-path="url(#_clipPath_fvHEQh14P9Jsyyg6uuTsvMaZqzHriwLl)"><path d=" M 613.448 140.69 L 613.448 140.69 L 608.868 140.69 L 608.868 127.09 L 613.448 127.09 L 613.448 127.09 Q 615.208 127.09 616.348 127.46 L 616.348 127.46 L 616.348 127.46 Q 617.488 127.83 618.118 128.68 L 618.118 128.68 L 618.118 128.68 Q 618.748 129.53 618.988 130.68 L 618.988 130.68 L 618.988 130.68 Q 619.228 131.83 619.228 133.67 L 619.228 133.67 L 619.228 133.67 Q 619.228 135.51 619.008 136.72 L 619.008 136.72 L 619.008 136.72 Q 618.788 137.93 618.178 138.88 L 618.178 138.88 L 618.178 138.88 Q 617.568 139.83 616.408 140.26 L 616.408 140.26 L 616.408 140.26 Q 615.248 140.69 613.448 140.69 Z  M 616.348 135.29 L 616.348 135.29 L 616.348 135.29 Q 616.388 134.65 616.388 133.52 L 616.388 133.52 L 616.388 133.52 Q 616.388 132.39 616.308 131.71 L 616.308 131.71 L 616.308 131.71 Q 616.228 131.03 615.928 130.47 L 615.928 130.47 L 615.928 130.47 Q 615.628 129.91 615.038 129.7 L 615.038 129.7 L 615.038 129.7 Q 614.448 129.49 613.448 129.49 L 613.448 129.49 L 611.628 129.49 L 611.628 138.29 L 613.448 138.29 L 613.448 138.29 Q 614.948 138.29 615.628 137.53 L 615.628 137.53 L 615.628 137.53 Q 616.208 136.91 616.348 135.29 Z  M 621.928 131.82 L 621.928 131.82 L 621.928 131.82 Q 622.988 130.45 625.468 130.45 L 625.468 130.45 L 625.468 130.45 Q 627.948 130.45 629.008 131.82 L 629.008 131.82 L 629.008 131.82 Q 630.068 133.19 630.068 135.67 L 630.068 135.67 L 630.068 135.67 Q 630.068 140.93 625.468 140.93 L 625.468 140.93 L 625.468 140.93 Q 620.868 140.93 620.868 135.67 L 620.868 135.67 L 620.868 135.67 Q 620.868 133.19 621.928 131.82 Z  M 623.998 137.93 L 623.998 137.93 L 623.998 137.93 Q 624.408 138.65 625.468 138.65 L 625.468 138.65 L 625.468 138.65 Q 626.528 138.65 626.938 137.93 L 626.938 137.93 L 626.938 137.93 Q 627.348 137.21 627.348 135.67 L 627.348 135.67 L 627.348 135.67 Q 627.348 134.13 626.938 133.43 L 626.938 133.43 L 626.938 133.43 Q 626.528 132.73 625.468 132.73 L 625.468 132.73 L 625.468 132.73 Q 624.408 132.73 623.998 133.43 L 623.998 133.43 L 623.998 133.43 Q 623.588 134.13 623.588 135.67 L 623.588 135.67 L 623.588 135.67 Q 623.588 137.21 623.998 137.93 Z  M 633.168 140.69 L 631.268 130.69 L 633.908 130.69 L 635.128 138.41 L 635.608 138.41 L 637.128 130.89 L 639.888 130.89 L 641.408 138.41 L 641.888 138.41 L 643.108 130.69 L 645.748 130.69 L 643.848 140.69 L 639.648 140.69 L 638.508 134.57 L 637.368 140.69 L 633.168 140.69 Z  M 650.148 133.21 L 650.148 140.69 L 647.468 140.69 L 647.468 130.69 L 650.128 130.69 L 650.128 131.25 L 650.128 131.25 Q 651.488 130.45 652.628 130.45 L 652.628 130.45 L 652.628 130.45 Q 654.628 130.45 655.388 131.63 L 655.388 131.63 L 655.388 131.63 Q 656.148 132.81 656.148 135.27 L 656.148 135.27 L 656.148 140.69 L 653.468 140.69 L 653.468 135.35 L 653.468 135.35 Q 653.468 134.07 653.168 133.46 L 653.168 133.46 L 653.168 133.46 Q 652.868 132.85 651.968 132.85 L 651.968 132.85 L 651.968 132.85 Q 651.148 132.85 650.388 133.13 L 650.388 133.13 L 650.148 133.21 Z  M 661.328 140.69 L 658.648 140.69 L 658.648 126.69 L 661.328 126.69 L 661.328 140.69 Z  M 664.468 131.82 L 664.468 131.82 L 664.468 131.82 Q 665.528 130.45 668.008 130.45 L 668.008 130.45 L 668.008 130.45 Q 670.488 130.45 671.548 131.82 L 671.548 131.82 L 671.548 131.82 Q 672.608 133.19 672.608 135.67 L 672.608 135.67 L 672.608 135.67 Q 672.608 140.93 668.008 140.93 L 668.008 140.93 L 668.008 140.93 Q 663.408 140.93 663.408 135.67 L 663.408 135.67 L 663.408 135.67 Q 663.408 133.19 664.468 131.82 Z  M 666.538 137.93 L 666.538 137.93 L 666.538 137.93 Q 666.948 138.65 668.008 138.65 L 668.008 138.65 L 668.008 138.65 Q 669.068 138.65 669.478 137.93 L 669.478 137.93 L 669.478 137.93 Q 669.888 137.21 669.888 135.67 L 669.888 135.67 L 669.888 135.67 Q 669.888 134.13 669.478 133.43 L 669.478 133.43 L 669.478 133.43 Q 669.068 132.73 668.008 132.73 L 668.008 132.73 L 668.008 132.73 Q 666.948 132.73 666.538 133.43 L 666.538 133.43 L 666.538 133.43 Q 666.128 134.13 666.128 135.67 L 666.128 135.67 L 666.128 135.67 Q 666.128 137.21 666.538 137.93 Z  M 682.228 133.81 L 682.228 133.81 L 682.228 137.97 L 682.228 137.97 Q 682.268 138.45 682.388 138.64 L 682.388 138.64 L 682.388 138.64 Q 682.508 138.83 682.888 138.91 L 682.888 138.91 L 682.808 140.93 L 682.808 140.93 Q 681.788 140.93 681.178 140.79 L 681.178 140.79 L 681.178 140.79 Q 680.568 140.65 679.948 140.23 L 679.948 140.23 L 679.948 140.23 Q 678.508 140.93 677.008 140.93 L 677.008 140.93 L 677.008 140.93 Q 673.908 140.93 673.908 137.65 L 673.908 137.65 L 673.908 137.65 Q 673.908 136.05 674.768 135.38 L 674.768 135.38 L 674.768 135.38 Q 675.628 134.71 677.408 134.59 L 677.408 134.59 L 679.548 134.43 L 679.548 133.81 L 679.548 133.81 Q 679.548 133.19 679.268 132.96 L 679.268 132.96 L 679.268 132.96 Q 678.988 132.73 678.368 132.73 L 678.368 132.73 L 674.608 132.89 L 674.528 131.03 L 674.528 131.03 Q 676.668 130.45 678.598 130.45 L 678.598 130.45 L 678.598 130.45 Q 680.528 130.45 681.378 131.25 L 681.378 131.25 L 681.378 131.25 Q 682.228 132.05 682.228 133.81 Z  M 679.548 136.29 L 677.728 136.45 L 677.728 136.45 Q 676.608 136.55 676.608 137.65 L 676.608 137.65 L 676.608 137.65 Q 676.608 138.75 677.588 138.75 L 677.588 138.75 L 677.588 138.75 Q 678.348 138.75 679.248 138.51 L 679.248 138.51 L 679.548 138.43 L 679.548 136.29 Z  M 690.608 126.69 L 693.288 126.69 L 693.288 140.69 L 690.628 140.69 L 690.628 140.27 L 690.628 140.27 Q 689.228 140.93 688.208 140.93 L 688.208 140.93 L 688.208 140.93 Q 686.028 140.93 685.168 139.67 L 685.168 139.67 L 685.168 139.67 Q 684.308 138.41 684.308 135.68 L 684.308 135.68 L 684.308 135.68 Q 684.308 132.95 685.338 131.7 L 685.338 131.7 L 685.338 131.7 Q 686.368 130.45 688.448 130.45 L 688.448 130.45 L 688.448 130.45 Q 689.088 130.45 690.228 130.65 L 690.228 130.65 L 690.608 130.73 L 690.608 126.69 Z  M 690.328 138.29 L 690.328 138.29 L 690.608 138.23 L 690.608 132.97 L 690.608 132.97 Q 689.508 132.77 688.648 132.77 L 688.648 132.77 L 688.648 132.77 Q 687.028 132.77 687.028 135.65 L 687.028 135.65 L 687.028 135.65 Q 687.028 137.21 687.388 137.87 L 687.388 137.87 L 687.388 137.87 Q 687.748 138.53 688.578 138.53 L 688.578 138.53 L 688.578 138.53 Q 689.408 138.53 690.328 138.29 Z  M 560.968 140.69 L 558.208 140.69 L 558.208 127.09 L 562.908 127.09 L 565.308 137.01 L 567.708 127.09 L 572.408 127.09 L 572.408 140.69 L 569.648 140.69 L 569.648 130.17 L 569.348 130.17 L 566.688 140.09 L 563.928 140.09 L 561.268 130.17 L 560.968 130.17 L 560.968 140.69 Z  M 582.788 133.81 L 582.788 133.81 L 582.788 137.97 L 582.788 137.97 Q 582.828 138.45 582.948 138.64 L 582.948 138.64 L 582.948 138.64 Q 583.068 138.83 583.448 138.91 L 583.448 138.91 L 583.368 140.93 L 583.368 140.93 Q 582.348 140.93 581.738 140.79 L 581.738 140.79 L 581.738 140.79 Q 581.128 140.65 580.508 140.23 L 580.508 140.23 L 580.508 140.23 Q 579.068 140.93 577.568 140.93 L 577.568 140.93 L 577.568 140.93 Q 574.468 140.93 574.468 137.65 L 574.468 137.65 L 574.468 137.65 Q 574.468 136.05 575.328 135.38 L 575.328 135.38 L 575.328 135.38 Q 576.188 134.71 577.968 134.59 L 577.968 134.59 L 580.108 134.43 L 580.108 133.81 L 580.108 133.81 Q 580.108 133.19 579.828 132.96 L 579.828 132.96 L 579.828 132.96 Q 579.548 132.73 578.928 132.73 L 578.928 132.73 L 575.168 132.89 L 575.088 131.03 L 575.088 131.03 Q 577.228 130.45 579.158 130.45 L 579.158 130.45 L 579.158 130.45 Q 581.088 130.45 581.938 131.25 L 581.938 131.25 L 581.938 131.25 Q 582.788 132.05 582.788 133.81 Z  M 580.108 136.29 L 578.288 136.45 L 578.288 136.45 Q 577.168 136.55 577.168 137.65 L 577.168 137.65 L 577.168 137.65 Q 577.168 138.75 578.148 138.75 L 578.148 138.75 L 578.148 138.75 Q 578.908 138.75 579.808 138.51 L 579.808 138.51 L 580.108 138.43 L 580.108 136.29 Z  M 592.568 130.97 L 592.528 133.19 L 592.528 133.19 Q 590.048 132.87 589.058 132.87 L 589.058 132.87 L 589.058 132.87 Q 588.068 132.87 587.778 133.05 L 587.778 133.05 L 587.778 133.05 Q 587.488 133.23 587.488 133.62 L 587.488 133.62 L 587.488 133.62 Q 587.488 134.01 587.878 134.16 L 587.878 134.16 L 587.878 134.16 Q 588.268 134.31 589.878 134.6 L 589.878 134.6 L 589.878 134.6 Q 591.488 134.89 592.168 135.55 L 592.168 135.55 L 592.168 135.55 Q 592.848 136.21 592.848 137.69 L 592.848 137.69 L 592.848 137.69 Q 592.848 140.93 588.828 140.93 L 588.828 140.93 L 588.828 140.93 Q 587.508 140.93 585.628 140.57 L 585.628 140.57 L 584.988 140.45 L 585.068 138.21 L 585.068 138.21 Q 587.548 138.53 588.518 138.53 L 588.518 138.53 L 588.518 138.53 Q 589.488 138.53 589.838 138.34 L 589.838 138.34 L 589.838 138.34 Q 590.188 138.15 590.188 137.77 L 590.188 137.77 L 590.188 137.77 Q 590.188 137.39 589.818 137.21 L 589.818 137.21 L 589.818 137.21 Q 589.448 137.03 587.898 136.77 L 587.898 136.77 L 587.898 136.77 Q 586.348 136.51 585.588 135.89 L 585.588 135.89 L 585.588 135.89 Q 584.828 135.27 584.828 133.68 L 584.828 133.68 L 584.828 133.68 Q 584.828 132.09 585.908 131.28 L 585.908 131.28 L 585.908 131.28 Q 586.988 130.47 588.688 130.47 L 588.688 130.47 L 588.688 130.47 Q 589.868 130.47 591.908 130.85 L 591.908 130.85 L 592.568 130.97 Z  M 602.008 130.97 L 601.968 133.19 L 601.968 133.19 Q 599.488 132.87 598.498 132.87 L 598.498 132.87 L 598.498 132.87 Q 597.508 132.87 597.218 133.05 L 597.218 133.05 L 597.218 133.05 Q 596.928 133.23 596.928 133.62 L 596.928 133.62 L 596.928 133.62 Q 596.928 134.01 597.318 134.16 L 597.318 134.16 L 597.318 134.16 Q 597.708 134.31 599.318 134.6 L 599.318 134.6 L 599.318 134.6 Q 600.928 134.89 601.608 135.55 L 601.608 135.55 L 601.608 135.55 Q 602.288 136.21 602.288 137.69 L 602.288 137.69 L 602.288 137.69 Q 602.288 140.93 598.268 140.93 L 598.268 140.93 L 598.268 140.93 Q 596.948 140.93 595.068 140.57 L 595.068 140.57 L 594.428 140.45 L 594.508 138.21 L 594.508 138.21 Q 596.988 138.53 597.958 138.53 L 597.958 138.53 L 597.958 138.53 Q 598.928 138.53 599.278 138.34 L 599.278 138.34 L 599.278 138.34 Q 599.628 138.15 599.628 137.77 L 599.628 137.77 L 599.628 137.77 Q 599.628 137.39 599.258 137.21 L 599.258 137.21 L 599.258 137.21 Q 598.888 137.03 597.338 136.77 L 597.338 136.77 L 597.338 136.77 Q 595.788 136.51 595.028 135.89 L 595.028 135.89 L 595.028 135.89 Q 594.268 135.27 594.268 133.68 L 594.268 133.68 L 594.268 133.68 Q 594.268 132.09 595.348 131.28 L 595.348 131.28 L 595.348 131.28 Q 596.428 130.47 598.128 130.47 L 598.128 130.47 L 598.128 130.47 Q 599.308 130.47 601.348 130.85 L 601.348 130.85 L 602.008 130.97 Z " fill-rule="evenodd" fill="rgb(81,52,123)"/><path d=" M 88.193 134.23 L 88.193 134.23 L 88.193 134.23 Q 88.193 136.164 86.802 137.277 L 86.802 137.277 L 86.802 137.277 Q 85.41 138.391 82.93 138.391 L 82.93 138.391 L 82.93 138.391 Q 80.644 138.391 78.887 137.531 L 78.887 137.531 L 78.887 134.719 L 78.887 134.719 Q 80.332 135.363 81.333 135.627 L 81.333 135.627 L 81.333 135.627 Q 82.334 135.891 83.164 135.891 L 83.164 135.891 L 83.164 135.891 Q 84.16 135.891 84.692 135.51 L 84.692 135.51 L 84.692 135.51 Q 85.224 135.129 85.224 134.377 L 85.224 134.377 L 85.224 134.377 Q 85.224 133.957 84.99 133.63 L 84.99 133.63 L 84.99 133.63 Q 84.756 133.303 84.302 133 L 84.302 133 L 84.302 133 Q 83.848 132.697 82.451 132.033 L 82.451 132.033 L 82.451 132.033 Q 81.142 131.418 80.488 130.852 L 80.488 130.852 L 80.488 130.852 Q 79.834 130.285 79.443 129.533 L 79.443 129.533 L 79.443 129.533 Q 79.053 128.781 79.053 127.775 L 79.053 127.775 L 79.053 127.775 Q 79.053 125.881 80.337 124.797 L 80.337 124.797 L 80.337 124.797 Q 81.621 123.713 83.887 123.713 L 83.887 123.713 L 83.887 123.713 Q 85 123.713 86.011 123.977 L 86.011 123.977 L 86.011 123.977 Q 87.021 124.24 88.125 124.719 L 88.125 124.719 L 87.148 127.072 L 87.148 127.072 Q 86.006 126.604 85.259 126.418 L 85.259 126.418 L 85.259 126.418 Q 84.512 126.232 83.789 126.232 L 83.789 126.232 L 83.789 126.232 Q 82.93 126.232 82.471 126.633 L 82.471 126.633 L 82.471 126.633 Q 82.012 127.033 82.012 127.678 L 82.012 127.678 L 82.012 127.678 Q 82.012 128.078 82.197 128.376 L 82.197 128.376 L 82.197 128.376 Q 82.383 128.674 82.788 128.952 L 82.788 128.952 L 82.788 128.952 Q 83.193 129.23 84.707 129.953 L 84.707 129.953 L 84.707 129.953 Q 86.709 130.91 87.451 131.872 L 87.451 131.872 L 87.451 131.872 Q 88.193 132.834 88.193 134.23 Z  M 95.068 129.191 L 95.068 129.191 L 95.068 129.191 Q 94.121 129.191 93.584 129.792 L 93.584 129.792 L 93.584 129.792 Q 93.047 130.393 92.969 131.496 L 92.969 131.496 L 97.148 131.496 L 97.148 131.496 Q 97.129 130.393 96.572 129.792 L 96.572 129.792 L 96.572 129.792 Q 96.016 129.191 95.068 129.191 Z  M 95.488 138.391 L 95.488 138.391 L 95.488 138.391 Q 92.851 138.391 91.367 136.936 L 91.367 136.936 L 91.367 136.936 Q 89.883 135.48 89.883 132.814 L 89.883 132.814 L 89.883 132.814 Q 89.883 130.07 91.255 128.571 L 91.255 128.571 L 91.255 128.571 Q 92.627 127.072 95.049 127.072 L 95.049 127.072 L 95.049 127.072 Q 97.363 127.072 98.652 128.391 L 98.652 128.391 L 98.652 128.391 Q 99.941 129.709 99.941 132.033 L 99.941 132.033 L 99.941 133.479 L 92.9 133.479 L 92.9 133.479 Q 92.949 134.748 93.652 135.461 L 93.652 135.461 L 93.652 135.461 Q 94.355 136.174 95.625 136.174 L 95.625 136.174 L 95.625 136.174 Q 96.611 136.174 97.49 135.969 L 97.49 135.969 L 97.49 135.969 Q 98.369 135.764 99.326 135.314 L 99.326 135.314 L 99.326 137.619 L 99.326 137.619 Q 98.545 138.01 97.656 138.2 L 97.656 138.2 L 97.656 138.2 Q 96.767 138.391 95.488 138.391 Z  M 111.377 138.195 L 109.297 138.195 L 108.721 136.711 L 108.642 136.711 L 108.642 136.711 Q 107.891 137.658 107.095 138.024 L 107.095 138.024 L 107.095 138.024 Q 106.299 138.391 105.019 138.391 L 105.019 138.391 L 105.019 138.391 Q 103.447 138.391 102.544 137.492 L 102.544 137.492 L 102.544 137.492 Q 101.641 136.594 101.641 134.934 L 101.641 134.934 L 101.641 134.934 Q 101.641 133.195 102.856 132.37 L 102.856 132.37 L 102.856 132.37 Q 104.072 131.545 106.523 131.457 L 106.523 131.457 L 108.418 131.398 L 108.418 130.92 L 108.418 130.92 Q 108.418 129.26 106.719 129.26 L 106.719 129.26 L 106.719 129.26 Q 105.41 129.26 103.642 130.051 L 103.642 130.051 L 102.656 128.039 L 102.656 128.039 Q 104.541 127.053 106.836 127.053 L 106.836 127.053 L 106.836 127.053 Q 109.033 127.053 110.205 128.01 L 110.205 128.01 L 110.205 128.01 Q 111.377 128.967 111.377 130.92 L 111.377 130.92 L 111.377 138.195 Z  M 108.418 134.035 L 108.418 133.137 L 107.266 133.176 L 107.266 133.176 Q 105.967 133.215 105.332 133.645 L 105.332 133.645 L 105.332 133.645 Q 104.697 134.074 104.697 134.953 L 104.697 134.953 L 104.697 134.953 Q 104.697 136.213 106.142 136.213 L 106.142 136.213 L 106.142 136.213 Q 107.178 136.213 107.798 135.617 L 107.798 135.617 L 107.798 135.617 Q 108.418 135.021 108.418 134.035 L 108.418 134.035 Z  M 120.537 127.072 L 120.537 127.072 L 120.537 127.072 Q 121.142 127.072 121.543 127.16 L 121.543 127.16 L 121.318 129.953 L 121.318 129.953 Q 120.957 129.855 120.439 129.855 L 120.439 129.855 L 120.439 129.855 Q 119.014 129.855 118.218 130.588 L 118.218 130.588 L 118.218 130.588 Q 117.422 131.32 117.422 132.639 L 117.422 132.639 L 117.422 138.195 L 114.443 138.195 L 114.443 127.277 L 116.699 127.277 L 117.139 129.113 L 117.285 129.113 L 117.285 129.113 Q 117.793 128.195 118.657 127.634 L 118.657 127.634 L 118.657 127.634 Q 119.521 127.072 120.537 127.072 Z  M 127.959 138.391 L 127.959 138.391 L 127.959 138.391 Q 122.861 138.391 122.861 132.795 L 122.861 132.795 L 122.861 132.795 Q 122.861 130.012 124.248 128.542 L 124.248 128.542 L 124.248 128.542 Q 125.635 127.072 128.223 127.072 L 128.223 127.072 L 128.223 127.072 Q 130.117 127.072 131.621 127.814 L 131.621 127.814 L 130.742 130.119 L 130.742 130.119 Q 130.039 129.836 129.433 129.655 L 129.433 129.655 L 129.433 129.655 Q 128.828 129.475 128.223 129.475 L 128.223 129.475 L 128.223 129.475 Q 125.898 129.475 125.898 132.775 L 125.898 132.775 L 125.898 132.775 Q 125.898 135.979 128.223 135.979 L 128.223 135.979 L 128.223 135.979 Q 129.082 135.979 129.814 135.749 L 129.814 135.749 L 129.814 135.749 Q 130.547 135.52 131.279 135.031 L 131.279 135.031 L 131.279 137.58 L 131.279 137.58 Q 130.557 138.039 129.819 138.215 L 129.819 138.215 L 129.819 138.215 Q 129.082 138.391 127.959 138.391 Z  M 143.887 131.076 L 143.887 138.195 L 140.908 138.195 L 140.908 131.818 L 140.908 131.818 Q 140.908 129.455 139.15 129.455 L 139.15 129.455 L 139.15 129.455 Q 137.9 129.455 137.344 130.305 L 137.344 130.305 L 137.344 130.305 Q 136.787 131.154 136.787 133.059 L 136.787 133.059 L 136.787 138.195 L 133.808 138.195 L 133.808 123 L 136.787 123 L 136.787 126.096 L 136.787 126.096 Q 136.787 126.457 136.719 127.795 L 136.719 127.795 L 136.65 128.674 L 136.807 128.674 L 136.807 128.674 Q 137.803 127.072 139.971 127.072 L 139.971 127.072 L 139.971 127.072 Q 141.894 127.072 142.891 128.107 L 142.891 128.107 L 142.891 128.107 Q 143.887 129.143 143.887 131.076 L 143.887 131.076 Z  M 20.898 126.398 L 20.898 130.256 L 21.875 130.256 L 21.875 130.256 Q 23.31 130.256 23.994 129.777 L 23.994 129.777 L 23.994 129.777 Q 24.678 129.299 24.678 128.273 L 24.678 128.273 L 24.678 128.273 Q 24.678 127.258 23.979 126.828 L 23.979 126.828 L 23.979 126.828 Q 23.281 126.398 21.816 126.398 L 21.816 126.398 L 20.898 126.398 Z  M 22.51 132.717 L 20.898 132.717 L 20.898 138.195 L 17.871 138.195 L 17.871 123.918 L 22.031 123.918 L 22.031 123.918 Q 24.941 123.918 26.338 124.978 L 26.338 124.978 L 26.338 124.978 Q 27.734 126.037 27.734 128.195 L 27.734 128.195 L 27.734 128.195 Q 27.734 129.455 27.041 130.437 L 27.041 130.437 L 27.041 130.437 Q 26.348 131.418 25.078 131.975 L 25.078 131.975 L 25.078 131.975 Q 28.301 136.789 29.277 138.195 L 29.277 138.195 L 25.918 138.195 L 22.51 132.717 Z  M 39.853 138.195 L 37.773 138.195 L 37.197 136.711 L 37.119 136.711 L 37.119 136.711 Q 36.367 137.658 35.571 138.024 L 35.571 138.024 L 35.571 138.024 Q 34.775 138.391 33.496 138.391 L 33.496 138.391 L 33.496 138.391 Q 31.924 138.391 31.02 137.492 L 31.02 137.492 L 31.02 137.492 Q 30.117 136.594 30.117 134.934 L 30.117 134.934 L 30.117 134.934 Q 30.117 133.195 31.333 132.37 L 31.333 132.37 L 31.333 132.37 Q 32.549 131.545 35 131.457 L 35 131.457 L 36.894 131.398 L 36.894 130.92 L 36.894 130.92 Q 36.894 129.26 35.195 129.26 L 35.195 129.26 L 35.195 129.26 Q 33.887 129.26 32.119 130.051 L 32.119 130.051 L 31.133 128.039 L 31.133 128.039 Q 33.017 127.053 35.312 127.053 L 35.312 127.053 L 35.312 127.053 Q 37.51 127.053 38.682 128.01 L 38.682 128.01 L 38.682 128.01 Q 39.853 128.967 39.853 130.92 L 39.853 130.92 L 39.853 138.195 Z  M 36.894 134.035 L 36.894 133.137 L 35.742 133.176 L 35.742 133.176 Q 34.443 133.215 33.808 133.645 L 33.808 133.645 L 33.808 133.645 Q 33.174 134.074 33.174 134.953 L 33.174 134.953 L 33.174 134.953 Q 33.174 136.213 34.619 136.213 L 34.619 136.213 L 34.619 136.213 Q 35.654 136.213 36.274 135.617 L 36.274 135.617 L 36.274 135.617 Q 36.894 135.021 36.894 134.035 L 36.894 134.035 Z  M 48.916 138.391 L 48.916 138.391 L 48.916 138.391 Q 46.992 138.391 45.898 136.994 L 45.898 136.994 L 45.742 136.994 L 45.742 136.994 Q 45.898 138.361 45.898 138.576 L 45.898 138.576 L 45.898 143 L 42.92 143 L 42.92 127.277 L 45.342 127.277 L 45.762 128.693 L 45.898 128.693 L 45.898 128.693 Q 46.943 127.072 48.994 127.072 L 48.994 127.072 L 48.994 127.072 Q 50.928 127.072 52.021 128.566 L 52.021 128.566 L 52.021 128.566 Q 53.115 130.061 53.115 132.717 L 53.115 132.717 L 53.115 132.717 Q 53.115 134.465 52.602 135.754 L 52.602 135.754 L 52.602 135.754 Q 52.09 137.043 51.142 137.717 L 51.142 137.717 L 51.142 137.717 Q 50.195 138.391 48.916 138.391 Z  M 48.037 129.455 L 48.037 129.455 L 48.037 129.455 Q 46.933 129.455 46.426 130.134 L 46.426 130.134 L 46.426 130.134 Q 45.918 130.813 45.898 132.375 L 45.898 132.375 L 45.898 132.697 L 45.898 132.697 Q 45.898 134.455 46.421 135.217 L 46.421 135.217 L 46.421 135.217 Q 46.943 135.979 48.076 135.979 L 48.076 135.979 L 48.076 135.979 Q 50.078 135.979 50.078 132.678 L 50.078 132.678 L 50.078 132.678 Q 50.078 131.066 49.585 130.261 L 49.585 130.261 L 49.585 130.261 Q 49.092 129.455 48.037 129.455 Z  M 55.449 124.455 L 55.449 124.455 L 55.449 124.455 Q 55.449 123 57.07 123 L 57.07 123 L 57.07 123 Q 58.691 123 58.691 124.455 L 58.691 124.455 L 58.691 124.455 Q 58.691 125.148 58.286 125.534 L 58.286 125.534 L 58.286 125.534 Q 57.881 125.92 57.07 125.92 L 57.07 125.92 L 57.07 125.92 Q 55.449 125.92 55.449 124.455 Z  M 58.555 127.277 L 58.555 138.195 L 55.576 138.195 L 55.576 127.277 L 58.555 127.277 Z  M 65.137 138.391 L 65.137 138.391 L 65.137 138.391 Q 63.213 138.391 62.114 136.896 L 62.114 136.896 L 62.114 136.896 Q 61.016 135.402 61.016 132.756 L 61.016 132.756 L 61.016 132.756 Q 61.016 130.07 62.134 128.571 L 62.134 128.571 L 62.134 128.571 Q 63.252 127.072 65.215 127.072 L 65.215 127.072 L 65.215 127.072 Q 67.275 127.072 68.359 128.674 L 68.359 128.674 L 68.457 128.674 L 68.457 128.674 Q 68.232 127.453 68.232 126.496 L 68.232 126.496 L 68.232 123 L 71.221 123 L 71.221 138.195 L 68.935 138.195 L 68.359 136.779 L 68.232 136.779 L 68.232 136.779 Q 67.217 138.391 65.137 138.391 Z  M 66.182 136.018 L 66.182 136.018 L 66.182 136.018 Q 67.324 136.018 67.856 135.354 L 67.856 135.354 L 67.856 135.354 Q 68.389 134.689 68.437 133.098 L 68.437 133.098 L 68.437 132.775 L 68.437 132.775 Q 68.437 131.018 67.895 130.256 L 67.895 130.256 L 67.895 130.256 Q 67.353 129.494 66.133 129.494 L 66.133 129.494 L 66.133 129.494 Q 65.137 129.494 64.585 130.339 L 64.585 130.339 L 64.585 130.339 Q 64.033 131.184 64.033 132.795 L 64.033 132.795 L 64.033 132.795 Q 64.033 134.406 64.59 135.212 L 64.59 135.212 L 64.59 135.212 Q 65.146 136.018 66.182 136.018 Z " fill-rule="evenodd" fill="rgb(81,52,123)"/><path d=" M 259.469 133.832 L 259.469 139.477 L 256.491 139.477 L 256.491 125.2 L 264.674 125.2 L 264.674 127.68 L 259.469 127.68 L 259.469 131.362 L 264.313 131.362 L 264.313 133.832 L 259.469 133.832 Z  M 273.327 128.354 L 273.327 128.354 L 273.327 128.354 Q 273.932 128.354 274.333 128.442 L 274.333 128.442 L 274.108 131.235 L 274.108 131.235 Q 273.747 131.137 273.229 131.137 L 273.229 131.137 L 273.229 131.137 Q 271.803 131.137 271.007 131.87 L 271.007 131.87 L 271.007 131.87 Q 270.211 132.602 270.211 133.92 L 270.211 133.92 L 270.211 139.477 L 267.233 139.477 L 267.233 128.559 L 269.489 128.559 L 269.928 130.395 L 270.075 130.395 L 270.075 130.395 Q 270.583 129.477 271.447 128.915 L 271.447 128.915 L 271.447 128.915 Q 272.311 128.354 273.327 128.354 Z  M 280.836 130.473 L 280.836 130.473 L 280.836 130.473 Q 279.889 130.473 279.352 131.074 L 279.352 131.074 L 279.352 131.074 Q 278.815 131.674 278.737 132.778 L 278.737 132.778 L 282.917 132.778 L 282.917 132.778 Q 282.897 131.674 282.34 131.074 L 282.34 131.074 L 282.34 131.074 Q 281.784 130.473 280.836 130.473 Z  M 281.256 139.672 L 281.256 139.672 L 281.256 139.672 Q 278.62 139.672 277.135 138.217 L 277.135 138.217 L 277.135 138.217 Q 275.651 136.762 275.651 134.096 L 275.651 134.096 L 275.651 134.096 Q 275.651 131.352 277.023 129.853 L 277.023 129.853 L 277.023 129.853 Q 278.395 128.354 280.817 128.354 L 280.817 128.354 L 280.817 128.354 Q 283.131 128.354 284.42 129.672 L 284.42 129.672 L 284.42 129.672 Q 285.71 130.991 285.71 133.315 L 285.71 133.315 L 285.71 134.76 L 278.668 134.76 L 278.668 134.76 Q 278.717 136.03 279.42 136.743 L 279.42 136.743 L 279.42 136.743 Q 280.124 137.455 281.393 137.455 L 281.393 137.455 L 281.393 137.455 Q 282.379 137.455 283.258 137.25 L 283.258 137.25 L 283.258 137.25 Q 284.137 137.045 285.094 136.596 L 285.094 136.596 L 285.094 138.901 L 285.094 138.901 Q 284.313 139.291 283.424 139.482 L 283.424 139.482 L 283.424 139.482 Q 282.536 139.672 281.256 139.672 Z  M 292.653 130.473 L 292.653 130.473 L 292.653 130.473 Q 291.706 130.473 291.168 131.074 L 291.168 131.074 L 291.168 131.074 Q 290.631 131.674 290.553 132.778 L 290.553 132.778 L 294.733 132.778 L 294.733 132.778 Q 294.713 131.674 294.157 131.074 L 294.157 131.074 L 294.157 131.074 Q 293.6 130.473 292.653 130.473 Z  M 293.073 139.672 L 293.073 139.672 L 293.073 139.672 Q 290.436 139.672 288.952 138.217 L 288.952 138.217 L 288.952 138.217 Q 287.467 136.762 287.467 134.096 L 287.467 134.096 L 287.467 134.096 Q 287.467 131.352 288.839 129.853 L 288.839 129.853 L 288.839 129.853 Q 290.211 128.354 292.633 128.354 L 292.633 128.354 L 292.633 128.354 Q 294.948 128.354 296.237 129.672 L 296.237 129.672 L 296.237 129.672 Q 297.526 130.991 297.526 133.315 L 297.526 133.315 L 297.526 134.76 L 290.485 134.76 L 290.485 134.76 Q 290.534 136.03 291.237 136.743 L 291.237 136.743 L 291.237 136.743 Q 291.94 137.455 293.21 137.455 L 293.21 137.455 L 293.21 137.455 Q 294.196 137.455 295.075 137.25 L 295.075 137.25 L 295.075 137.25 Q 295.954 137.045 296.911 136.596 L 296.911 136.596 L 296.911 138.901 L 296.911 138.901 Q 296.129 139.291 295.241 139.482 L 295.241 139.482 L 295.241 139.482 Q 294.352 139.672 293.073 139.672 Z  M 205.495 125.2 L 205.495 139.477 L 202.477 139.477 L 202.477 131.215 L 202.506 129.858 L 202.555 128.373 L 202.555 128.373 Q 201.803 129.125 201.51 129.36 L 201.51 129.36 L 199.87 130.678 L 198.415 128.862 L 203.014 125.2 L 205.495 125.2 Z  M 219.352 132.338 L 219.352 132.338 L 219.352 132.338 Q 219.352 136.079 218.126 137.875 L 218.126 137.875 L 218.126 137.875 Q 216.901 139.672 214.352 139.672 L 214.352 139.672 L 214.352 139.672 Q 211.881 139.672 210.626 137.817 L 210.626 137.817 L 210.626 137.817 Q 209.372 135.961 209.372 132.338 L 209.372 132.338 L 209.372 132.338 Q 209.372 128.559 210.592 126.767 L 210.592 126.767 L 210.592 126.767 Q 211.813 124.975 214.352 124.975 L 214.352 124.975 L 214.352 124.975 Q 216.823 124.975 218.087 126.85 L 218.087 126.85 L 218.087 126.85 Q 219.352 128.725 219.352 132.338 Z  M 212.37 132.338 L 212.37 132.338 L 212.37 132.338 Q 212.37 134.965 212.824 136.103 L 212.824 136.103 L 212.824 136.103 Q 213.278 137.241 214.352 137.241 L 214.352 137.241 L 214.352 137.241 Q 215.407 137.241 215.876 136.088 L 215.876 136.088 L 215.876 136.088 Q 216.344 134.936 216.344 132.338 L 216.344 132.338 L 216.344 132.338 Q 216.344 129.711 215.871 128.564 L 215.871 128.564 L 215.871 128.564 Q 215.397 127.416 214.352 127.416 L 214.352 127.416 L 214.352 127.416 Q 213.288 127.416 212.829 128.564 L 212.829 128.564 L 212.829 128.564 Q 212.37 129.711 212.37 132.338 Z  M 230.768 132.338 L 230.768 132.338 L 230.768 132.338 Q 230.768 136.079 229.543 137.875 L 229.543 137.875 L 229.543 137.875 Q 228.317 139.672 225.768 139.672 L 225.768 139.672 L 225.768 139.672 Q 223.297 139.672 222.043 137.817 L 222.043 137.817 L 222.043 137.817 Q 220.788 135.961 220.788 132.338 L 220.788 132.338 L 220.788 132.338 Q 220.788 128.559 222.008 126.767 L 222.008 126.767 L 222.008 126.767 Q 223.229 124.975 225.768 124.975 L 225.768 124.975 L 225.768 124.975 Q 228.239 124.975 229.503 126.85 L 229.503 126.85 L 229.503 126.85 Q 230.768 128.725 230.768 132.338 Z  M 223.786 132.338 L 223.786 132.338 L 223.786 132.338 Q 223.786 134.965 224.24 136.103 L 224.24 136.103 L 224.24 136.103 Q 224.694 137.241 225.768 137.241 L 225.768 137.241 L 225.768 137.241 Q 226.823 137.241 227.292 136.088 L 227.292 136.088 L 227.292 136.088 Q 227.76 134.936 227.76 132.338 L 227.76 132.338 L 227.76 132.338 Q 227.76 129.711 227.287 128.564 L 227.287 128.564 L 227.287 128.564 Q 226.813 127.416 225.768 127.416 L 225.768 127.416 L 225.768 127.416 Q 224.704 127.416 224.245 128.564 L 224.245 128.564 L 224.245 128.564 Q 223.786 129.711 223.786 132.338 Z  M 234.557 129.477 L 234.557 129.477 L 234.557 129.477 Q 234.557 130.717 234.777 131.328 L 234.777 131.328 L 234.777 131.328 Q 234.997 131.938 235.485 131.938 L 235.485 131.938 L 235.485 131.938 Q 236.422 131.938 236.422 129.477 L 236.422 129.477 L 236.422 129.477 Q 236.422 127.036 235.485 127.036 L 235.485 127.036 L 235.485 127.036 Q 234.997 127.036 234.777 127.636 L 234.777 127.636 L 234.777 127.636 Q 234.557 128.237 234.557 129.477 Z  M 238.883 129.457 L 238.883 129.457 L 238.883 129.457 Q 238.883 131.704 238.014 132.831 L 238.014 132.831 L 238.014 132.831 Q 237.145 133.959 235.465 133.959 L 235.465 133.959 L 235.465 133.959 Q 233.854 133.959 232.975 132.802 L 232.975 132.802 L 232.975 132.802 Q 232.096 131.645 232.096 129.457 L 232.096 129.457 L 232.096 129.457 Q 232.096 124.995 235.465 124.995 L 235.465 124.995 L 235.465 124.995 Q 237.116 124.995 238 126.152 L 238 126.152 L 238 126.152 Q 238.883 127.309 238.883 129.457 Z  M 243.258 125.2 L 245.602 125.2 L 237.682 139.477 L 235.338 139.477 L 243.258 125.2 Z  M 244.557 135.18 L 244.557 135.18 L 244.557 135.18 Q 244.557 136.42 244.777 137.031 L 244.777 137.031 L 244.777 137.031 Q 244.997 137.641 245.485 137.641 L 245.485 137.641 L 245.485 137.641 Q 246.422 137.641 246.422 135.18 L 246.422 135.18 L 246.422 135.18 Q 246.422 132.739 245.485 132.739 L 245.485 132.739 L 245.485 132.739 Q 244.997 132.739 244.777 133.339 L 244.777 133.339 L 244.777 133.339 Q 244.557 133.94 244.557 135.18 Z  M 248.883 135.161 L 248.883 135.161 L 248.883 135.161 Q 248.883 137.397 248.014 138.525 L 248.014 138.525 L 248.014 138.525 Q 247.145 139.653 245.465 139.653 L 245.465 139.653 L 245.465 139.653 Q 243.854 139.653 242.975 138.495 L 242.975 138.495 L 242.975 138.495 Q 242.096 137.338 242.096 135.161 L 242.096 135.161 L 242.096 135.161 Q 242.096 130.698 245.465 130.698 L 245.465 130.698 L 245.465 130.698 Q 247.116 130.698 248 131.855 L 248 131.855 L 248 131.855 Q 248.883 133.012 248.883 135.161 Z " fill-rule="evenodd" fill="rgb(81,52,123)"/><g><path d=" M 284.535 98.327 L 258.228 98.327 L 258.228 60.745 C 258.228 58.678 259.919 56.987 261.986 56.987 L 277.019 56.987 C 278.146 56.987 279.274 57.551 280.025 58.49 L 291.3 72.959 C 291.864 73.711 292.051 74.463 292.051 75.214 L 292.051 90.811 C 292.051 94.945 288.669 98.327 284.535 98.327 Z " fill="rgb(255,193,7)"/><path d=" M 216.888 98.327 L 258.228 98.327 L 258.228 53.229 C 258.228 49.095 254.846 45.713 250.712 45.713 L 218.767 45.713 C 213.506 45.713 209.372 49.847 209.372 55.108 L 209.372 90.811 C 209.372 94.945 212.754 98.327 216.888 98.327 Z " fill="rgb(149,117,205)"/><g><circle vector-effect="non-scaling-stroke" cx="275.1396499812977" cy="98.32710212442387" r="9.39543420407523" fill="rgb(55,71,79)"/><circle vector-effect="non-scaling-stroke" cx="231.9206526425517" cy="98.32710212442387" r="9.39543420407523" fill="rgb(55,71,79)"/></g><g><circle vector-effect="non-scaling-stroke" cx="275.1396499812977" cy="98.32710212442387" r="4.697717102037586" fill="rgb(120,144,156)"/><circle vector-effect="non-scaling-stroke" cx="231.9206526425517" cy="98.32710212442387" r="4.697717102037615" fill="rgb(120,144,156)"/></g><path d=" M 284.535 79.536 L 277.77 79.536 C 277.207 79.536 276.831 79.348 276.455 78.973 L 273.824 76.342 C 273.448 75.966 273.073 75.778 272.509 75.778 L 265.744 75.778 C 264.617 75.778 263.865 75.026 263.865 73.899 L 263.865 62.624 C 263.865 61.497 264.617 60.745 265.744 60.745 L 276.079 60.745 C 276.643 60.745 277.207 60.933 277.582 61.497 L 286.038 71.644 C 286.226 72.02 286.414 72.396 286.414 72.772 L 286.414 77.657 C 286.414 78.785 285.663 79.536 284.535 79.536 Z " fill="rgb(69,90,100)"/><path d=" M 221.774 72.208 L 217.64 72.208 L 217.64 77.657 L 215.009 77.657 L 215.009 64.504 L 222.337 64.504 L 222.337 66.758 L 217.64 66.758 L 217.64 70.141 L 221.774 70.141 L 221.774 72.208 Z  M 228.726 72.772 L 227.411 72.772 L 227.411 77.657 L 224.78 77.657 L 224.78 64.504 L 229.102 64.504 C 231.357 64.504 233.236 65.631 233.236 68.45 C 233.236 71.268 231.545 72.02 231.357 72.208 L 233.612 77.657 L 230.793 77.657 L 228.726 72.772 Z  M 227.411 70.705 L 228.914 70.705 C 230.417 70.705 230.417 69.389 230.417 68.825 C 230.417 68.45 230.417 66.758 228.914 66.758 L 227.411 66.758 L 227.411 70.705 Z  M 242.631 72.02 L 238.497 72.02 L 238.497 75.59 L 243.383 75.59 L 243.383 77.657 L 235.867 77.657 L 235.867 64.504 L 243.383 64.504 L 243.383 66.758 L 238.497 66.758 L 238.497 69.953 L 242.631 69.953 L 242.631 72.02 Z  M 252.779 72.02 L 248.645 72.02 L 248.645 75.59 L 253.53 75.59 L 253.53 77.657 L 246.014 77.657 L 246.014 64.504 L 253.53 64.504 L 253.53 66.758 L 248.645 66.758 L 248.645 69.953 L 252.779 69.953 L 252.779 72.02 Z " fill="rgb(255,255,255)"/></g><path d=" M 482.943 136.977 L 482.943 139.477 L 474.721 139.477 L 474.721 125.2 L 482.943 125.2 L 482.943 127.68 L 477.748 127.68 L 477.748 130.815 L 482.582 130.815 L 482.582 133.295 L 477.748 133.295 L 477.748 136.977 L 482.943 136.977 Z  M 494.701 139.477 L 492.621 139.477 L 492.045 137.993 L 491.967 137.993 L 491.967 137.993 Q 491.215 138.94 490.419 139.306 L 490.419 139.306 L 490.419 139.306 Q 489.623 139.672 488.344 139.672 L 488.344 139.672 L 488.344 139.672 Q 486.771 139.672 485.868 138.774 L 485.868 138.774 L 485.868 138.774 Q 484.965 137.875 484.965 136.215 L 484.965 136.215 L 484.965 136.215 Q 484.965 134.477 486.181 133.652 L 486.181 133.652 L 486.181 133.652 Q 487.396 132.827 489.848 132.739 L 489.848 132.739 L 491.742 132.68 L 491.742 132.202 L 491.742 132.202 Q 491.742 130.541 490.043 130.541 L 490.043 130.541 L 490.043 130.541 Q 488.734 130.541 486.967 131.332 L 486.967 131.332 L 485.98 129.321 L 485.98 129.321 Q 487.865 128.334 490.16 128.334 L 490.16 128.334 L 490.16 128.334 Q 492.357 128.334 493.529 129.291 L 493.529 129.291 L 493.529 129.291 Q 494.701 130.248 494.701 132.202 L 494.701 132.202 L 494.701 139.477 Z  M 491.742 135.317 L 491.742 134.418 L 490.59 134.457 L 490.59 134.457 Q 489.291 134.496 488.656 134.926 L 488.656 134.926 L 488.656 134.926 Q 488.021 135.356 488.021 136.235 L 488.021 136.235 L 488.021 136.235 Q 488.021 137.495 489.467 137.495 L 489.467 137.495 L 489.467 137.495 Q 490.502 137.495 491.122 136.899 L 491.122 136.899 L 491.122 136.899 Q 491.742 136.303 491.742 135.317 L 491.742 135.317 Z  M 505.385 136.235 L 505.385 136.235 L 505.385 136.235 Q 505.385 137.914 504.218 138.793 L 504.218 138.793 L 504.218 138.793 Q 503.051 139.672 500.727 139.672 L 500.727 139.672 L 500.727 139.672 Q 499.535 139.672 498.695 139.511 L 498.695 139.511 L 498.695 139.511 Q 497.855 139.35 497.123 139.037 L 497.123 139.037 L 497.123 136.577 L 497.123 136.577 Q 497.953 136.967 498.993 137.231 L 498.993 137.231 L 498.993 137.231 Q 500.033 137.495 500.824 137.495 L 500.824 137.495 L 500.824 137.495 Q 502.445 137.495 502.445 136.557 L 502.445 136.557 L 502.445 136.557 Q 502.445 136.205 502.23 135.986 L 502.23 135.986 L 502.23 135.986 Q 502.016 135.766 501.488 135.488 L 501.488 135.488 L 501.488 135.488 Q 500.961 135.209 500.082 134.838 L 500.082 134.838 L 500.082 134.838 Q 498.822 134.311 498.231 133.862 L 498.231 133.862 L 498.231 133.862 Q 497.641 133.412 497.372 132.831 L 497.372 132.831 L 497.372 132.831 Q 497.104 132.25 497.104 131.401 L 497.104 131.401 L 497.104 131.401 Q 497.104 129.946 498.231 129.15 L 498.231 129.15 L 498.231 129.15 Q 499.359 128.354 501.43 128.354 L 501.43 128.354 L 501.43 128.354 Q 503.402 128.354 505.268 129.213 L 505.268 129.213 L 504.369 131.362 L 504.369 131.362 Q 503.549 131.01 502.836 130.786 L 502.836 130.786 L 502.836 130.786 Q 502.123 130.561 501.381 130.561 L 501.381 130.561 L 501.381 130.561 Q 500.063 130.561 500.063 131.274 L 500.063 131.274 L 500.063 131.274 Q 500.063 131.674 500.487 131.967 L 500.487 131.967 L 500.487 131.967 Q 500.912 132.26 502.348 132.836 L 502.348 132.836 L 502.348 132.836 Q 503.627 133.354 504.223 133.803 L 504.223 133.803 L 504.223 133.803 Q 504.818 134.252 505.102 134.838 L 505.102 134.838 L 505.102 134.838 Q 505.385 135.424 505.385 136.235 Z  M 510.482 139.399 L 506.146 128.559 L 509.408 128.559 L 511.469 134.702 L 511.469 134.702 Q 511.732 135.502 511.83 136.596 L 511.83 136.596 L 511.889 136.596 L 511.889 136.596 Q 511.996 135.59 512.309 134.702 L 512.309 134.702 L 514.33 128.559 L 517.523 128.559 L 512.904 140.873 L 512.904 140.873 Q 512.27 142.582 511.093 143.432 L 511.093 143.432 L 511.093 143.432 Q 509.916 144.282 508.344 144.282 L 508.344 144.282 L 508.344 144.282 Q 507.572 144.282 506.83 144.116 L 506.83 144.116 L 506.83 141.752 L 506.83 141.752 Q 507.367 141.879 508.002 141.879 L 508.002 141.879 L 508.002 141.879 Q 508.793 141.879 509.384 141.396 L 509.384 141.396 L 509.384 141.396 Q 509.975 140.912 510.307 139.936 L 510.307 139.936 L 510.482 139.399 Z  M 422.934 139.477 L 420.16 139.477 L 416.723 128.276 L 416.635 128.276 L 416.635 128.276 Q 416.82 131.694 416.82 132.836 L 416.82 132.836 L 416.82 139.477 L 414.115 139.477 L 414.115 125.2 L 418.236 125.2 L 421.615 136.118 L 421.674 136.118 L 425.258 125.2 L 429.379 125.2 L 429.379 139.477 L 426.557 139.477 L 426.557 132.719 L 426.557 132.719 Q 426.557 132.241 426.571 131.616 L 426.571 131.616 L 426.571 131.616 Q 426.586 130.991 426.703 128.295 L 426.703 128.295 L 426.615 128.295 L 422.934 139.477 Z  M 441.752 139.477 L 439.672 139.477 L 439.096 137.993 L 439.018 137.993 L 439.018 137.993 Q 438.266 138.94 437.47 139.306 L 437.47 139.306 L 437.47 139.306 Q 436.674 139.672 435.395 139.672 L 435.395 139.672 L 435.395 139.672 Q 433.822 139.672 432.919 138.774 L 432.919 138.774 L 432.919 138.774 Q 432.016 137.875 432.016 136.215 L 432.016 136.215 L 432.016 136.215 Q 432.016 134.477 433.231 133.652 L 433.231 133.652 L 433.231 133.652 Q 434.447 132.827 436.898 132.739 L 436.898 132.739 L 438.793 132.68 L 438.793 132.202 L 438.793 132.202 Q 438.793 130.541 437.094 130.541 L 437.094 130.541 L 437.094 130.541 Q 435.785 130.541 434.018 131.332 L 434.018 131.332 L 433.031 129.321 L 433.031 129.321 Q 434.916 128.334 437.211 128.334 L 437.211 128.334 L 437.211 128.334 Q 439.408 128.334 440.58 129.291 L 440.58 129.291 L 440.58 129.291 Q 441.752 130.248 441.752 132.202 L 441.752 132.202 L 441.752 139.477 Z  M 438.793 135.317 L 438.793 134.418 L 437.641 134.457 L 437.641 134.457 Q 436.342 134.496 435.707 134.926 L 435.707 134.926 L 435.707 134.926 Q 435.072 135.356 435.072 136.235 L 435.072 136.235 L 435.072 136.235 Q 435.072 137.495 436.518 137.495 L 436.518 137.495 L 436.518 137.495 Q 437.553 137.495 438.173 136.899 L 438.173 136.899 L 438.173 136.899 Q 438.793 136.303 438.793 135.317 L 438.793 135.317 Z  M 448.275 139.672 L 448.275 139.672 L 448.275 139.672 Q 446.352 139.672 445.253 138.178 L 445.253 138.178 L 445.253 138.178 Q 444.154 136.684 444.154 134.037 L 444.154 134.037 L 444.154 134.037 Q 444.154 131.352 445.272 129.853 L 445.272 129.853 L 445.272 129.853 Q 446.391 128.354 448.354 128.354 L 448.354 128.354 L 448.354 128.354 Q 450.414 128.354 451.498 129.955 L 451.498 129.955 L 451.596 129.955 L 451.596 129.955 Q 451.371 128.735 451.371 127.778 L 451.371 127.778 L 451.371 124.282 L 454.359 124.282 L 454.359 139.477 L 452.074 139.477 L 451.498 138.061 L 451.371 138.061 L 451.371 138.061 Q 450.355 139.672 448.275 139.672 Z  M 449.32 137.299 L 449.32 137.299 L 449.32 137.299 Q 450.463 137.299 450.995 136.635 L 450.995 136.635 L 450.995 136.635 Q 451.527 135.971 451.576 134.379 L 451.576 134.379 L 451.576 134.057 L 451.576 134.057 Q 451.576 132.299 451.034 131.537 L 451.034 131.537 L 451.034 131.537 Q 450.492 130.776 449.271 130.776 L 449.271 130.776 L 449.271 130.776 Q 448.275 130.776 447.724 131.62 L 447.724 131.62 L 447.724 131.62 Q 447.172 132.465 447.172 134.077 L 447.172 134.077 L 447.172 134.077 Q 447.172 135.688 447.729 136.494 L 447.729 136.494 L 447.729 136.494 Q 448.285 137.299 449.32 137.299 Z  M 461.996 130.473 L 461.996 130.473 L 461.996 130.473 Q 461.049 130.473 460.512 131.074 L 460.512 131.074 L 460.512 131.074 Q 459.975 131.674 459.896 132.778 L 459.896 132.778 L 464.076 132.778 L 464.076 132.778 Q 464.057 131.674 463.5 131.074 L 463.5 131.074 L 463.5 131.074 Q 462.943 130.473 461.996 130.473 Z  M 462.416 139.672 L 462.416 139.672 L 462.416 139.672 Q 459.779 139.672 458.295 138.217 L 458.295 138.217 L 458.295 138.217 Q 456.811 136.762 456.811 134.096 L 456.811 134.096 L 456.811 134.096 Q 456.811 131.352 458.183 129.853 L 458.183 129.853 L 458.183 129.853 Q 459.555 128.354 461.977 128.354 L 461.977 128.354 L 461.977 128.354 Q 464.291 128.354 465.58 129.672 L 465.58 129.672 L 465.58 129.672 Q 466.869 130.991 466.869 133.315 L 466.869 133.315 L 466.869 134.76 L 459.828 134.76 L 459.828 134.76 Q 459.877 136.03 460.58 136.743 L 460.58 136.743 L 460.58 136.743 Q 461.283 137.455 462.553 137.455 L 462.553 137.455 L 462.553 137.455 Q 463.539 137.455 464.418 137.25 L 464.418 137.25 L 464.418 137.25 Q 465.297 137.045 466.254 136.596 L 466.254 136.596 L 466.254 138.901 L 466.254 138.901 Q 465.473 139.291 464.584 139.482 L 464.584 139.482 L 464.584 139.482 Q 463.695 139.672 462.416 139.672 Z  M 349.818 139.477 L 347.045 139.477 L 343.607 128.276 L 343.52 128.276 L 343.52 128.276 Q 343.705 131.694 343.705 132.836 L 343.705 132.836 L 343.705 139.477 L 341 139.477 L 341 125.2 L 345.121 125.2 L 348.5 136.118 L 348.559 136.118 L 352.143 125.2 L 356.264 125.2 L 356.264 139.477 L 353.441 139.477 L 353.441 132.719 L 353.441 132.719 Q 353.441 132.241 353.456 131.616 L 353.456 131.616 L 353.456 131.616 Q 353.471 130.991 353.588 128.295 L 353.588 128.295 L 353.5 128.295 L 349.818 139.477 Z  M 361.996 133.998 L 361.996 133.998 L 361.996 133.998 Q 361.996 135.62 362.528 136.45 L 362.528 136.45 L 362.528 136.45 Q 363.061 137.28 364.262 137.28 L 364.262 137.28 L 364.262 137.28 Q 365.453 137.28 365.976 136.454 L 365.976 136.454 L 365.976 136.454 Q 366.498 135.629 366.498 133.998 L 366.498 133.998 L 366.498 133.998 Q 366.498 132.377 365.971 131.567 L 365.971 131.567 L 365.971 131.567 Q 365.443 130.756 364.242 130.756 L 364.242 130.756 L 364.242 130.756 Q 363.051 130.756 362.523 131.562 L 362.523 131.562 L 362.523 131.562 Q 361.996 132.368 361.996 133.998 Z  M 369.545 133.998 L 369.545 133.998 L 369.545 133.998 Q 369.545 136.664 368.139 138.168 L 368.139 138.168 L 368.139 138.168 Q 366.732 139.672 364.223 139.672 L 364.223 139.672 L 364.223 139.672 Q 362.65 139.672 361.449 138.984 L 361.449 138.984 L 361.449 138.984 Q 360.248 138.295 359.604 137.006 L 359.604 137.006 L 359.604 137.006 Q 358.959 135.717 358.959 133.998 L 358.959 133.998 L 358.959 133.998 Q 358.959 131.323 360.355 129.838 L 360.355 129.838 L 360.355 129.838 Q 361.752 128.354 364.281 128.354 L 364.281 128.354 L 364.281 128.354 Q 365.854 128.354 367.055 129.037 L 367.055 129.037 L 367.055 129.037 Q 368.256 129.721 368.9 131 L 368.9 131 L 368.9 131 Q 369.545 132.28 369.545 133.998 Z  M 378.08 128.354 L 378.08 128.354 L 378.08 128.354 Q 380.014 128.354 381.107 129.863 L 381.107 129.863 L 381.107 129.863 Q 382.201 131.371 382.201 133.998 L 382.201 133.998 L 382.201 133.998 Q 382.201 136.704 381.073 138.188 L 381.073 138.188 L 381.073 138.188 Q 379.945 139.672 378.002 139.672 L 378.002 139.672 L 378.002 139.672 Q 376.078 139.672 374.984 138.276 L 374.984 138.276 L 374.779 138.276 L 374.281 139.477 L 372.006 139.477 L 372.006 124.282 L 374.984 124.282 L 374.984 127.817 L 374.984 127.817 Q 374.984 128.491 374.867 129.975 L 374.867 129.975 L 374.984 129.975 L 374.984 129.975 Q 376.029 128.354 378.08 128.354 Z  M 377.123 130.737 L 377.123 130.737 L 377.123 130.737 Q 376.02 130.737 375.512 131.415 L 375.512 131.415 L 375.512 131.415 Q 375.004 132.094 374.984 133.657 L 374.984 133.657 L 374.984 133.979 L 374.984 133.979 Q 374.984 135.737 375.507 136.498 L 375.507 136.498 L 375.507 136.498 Q 376.029 137.26 377.162 137.26 L 377.162 137.26 L 377.162 137.26 Q 378.08 137.26 378.622 136.415 L 378.622 136.415 L 378.622 136.415 Q 379.164 135.571 379.164 133.959 L 379.164 133.959 L 379.164 133.959 Q 379.164 132.348 378.617 131.542 L 378.617 131.542 L 378.617 131.542 Q 378.07 130.737 377.123 130.737 Z  M 384.535 125.737 L 384.535 125.737 L 384.535 125.737 Q 384.535 124.282 386.156 124.282 L 386.156 124.282 L 386.156 124.282 Q 387.777 124.282 387.777 125.737 L 387.777 125.737 L 387.777 125.737 Q 387.777 126.43 387.372 126.816 L 387.372 126.816 L 387.372 126.816 Q 386.967 127.202 386.156 127.202 L 386.156 127.202 L 386.156 127.202 Q 384.535 127.202 384.535 125.737 Z  M 387.641 128.559 L 387.641 139.477 L 384.662 139.477 L 384.662 128.559 L 387.641 128.559 Z  M 393.744 124.282 L 393.744 139.477 L 390.766 139.477 L 390.766 124.282 L 393.744 124.282 Z  M 401.391 130.473 L 401.391 130.473 L 401.391 130.473 Q 400.443 130.473 399.906 131.074 L 399.906 131.074 L 399.906 131.074 Q 399.369 131.674 399.291 132.778 L 399.291 132.778 L 403.471 132.778 L 403.471 132.778 Q 403.451 131.674 402.895 131.074 L 402.895 131.074 L 402.895 131.074 Q 402.338 130.473 401.391 130.473 Z  M 401.811 139.672 L 401.811 139.672 L 401.811 139.672 Q 399.174 139.672 397.689 138.217 L 397.689 138.217 L 397.689 138.217 Q 396.205 136.762 396.205 134.096 L 396.205 134.096 L 396.205 134.096 Q 396.205 131.352 397.577 129.853 L 397.577 129.853 L 397.577 129.853 Q 398.949 128.354 401.371 128.354 L 401.371 128.354 L 401.371 128.354 Q 403.686 128.354 404.975 129.672 L 404.975 129.672 L 404.975 129.672 Q 406.264 130.991 406.264 133.315 L 406.264 133.315 L 406.264 134.76 L 399.223 134.76 L 399.223 134.76 Q 399.271 136.03 399.975 136.743 L 399.975 136.743 L 399.975 136.743 Q 400.678 137.455 401.947 137.455 L 401.947 137.455 L 401.947 137.455 Q 402.934 137.455 403.813 137.25 L 403.813 137.25 L 403.813 137.25 Q 404.691 137.045 405.648 136.596 L 405.648 136.596 L 405.648 138.901 L 405.648 138.901 Q 404.867 139.291 403.979 139.482 L 403.979 139.482 L 403.979 139.482 Q 403.09 139.672 401.811 139.672 Z " fill-rule="evenodd" fill="rgb(81,52,123)"/><path d=" M 87.193 82.547 C 91.985 82.547 96.777 80.735 100.415 77.132 C 107.709 69.906 107.709 58.161 100.415 50.935 C 93.12 43.709 81.265 43.709 73.97 50.935 C 66.676 58.161 66.676 69.906 73.97 77.132 C 77.478 80.603 82.235 82.551 87.193 82.547 L 87.193 82.547 Z  M 87.193 48.361 C 91.254 48.361 95.295 49.886 98.375 52.937 C 104.553 59.057 104.553 68.991 98.375 75.111 C 92.197 81.231 82.169 81.231 75.991 75.111 C 69.813 68.991 69.813 59.057 75.991 52.937 C 78.967 50.003 82.995 48.357 87.193 48.361 Z  M 74.355 62.794 C 74.997 62.794 75.561 62.375 75.741 61.764 C 76.011 60.792 76.434 59.839 76.954 58.962 C 77.358 58.294 77.127 57.417 76.453 57.017 C 75.78 56.617 74.894 56.845 74.49 57.513 C 73.836 58.599 73.335 59.782 72.989 61.002 C 72.777 61.764 73.22 62.546 73.99 62.756 C 74.086 62.775 74.221 62.794 74.355 62.794 L 74.355 62.794 Z  M 96.662 57.017 C 97.027 57.017 97.393 56.884 97.682 56.598 C 97.95 56.332 98.101 55.972 98.101 55.597 C 98.101 55.221 97.95 54.861 97.682 54.596 C 92.613 49.56 84.625 48.86 78.744 52.937 C 78.089 53.394 77.935 54.271 78.397 54.92 C 78.859 55.568 79.744 55.72 80.399 55.263 C 85.139 51.979 91.575 52.542 95.661 56.598 C 95.921 56.87 96.284 57.022 96.662 57.017 L 96.662 57.017 Z  M 46.814 96.961 L 61.961 81.956 C 63.534 80.397 65.958 80.055 67.908 81.117 L 69.736 79.305 C 61.653 70.249 61.98 56.369 70.718 47.713 C 79.802 38.713 94.564 38.713 103.648 47.713 C 112.732 56.712 112.732 71.336 103.648 80.335 C 99.241 84.701 93.409 87.084 87.173 87.084 C 81.438 87.084 76.011 85.044 71.757 81.307 L 69.929 83.119 C 70.968 85.006 70.699 87.428 69.082 89.01 L 53.935 104.015 C 52.954 104.988 51.664 105.483 50.375 105.483 C 49.085 105.483 47.796 104.988 46.814 104.015 C 44.851 102.09 44.851 98.905 46.814 96.961 L 46.814 96.961 Z  M 101.627 78.333 C 109.595 70.44 109.595 57.608 101.627 49.734 C 97.778 45.92 92.639 43.804 87.193 43.804 C 81.746 43.804 76.607 45.901 72.758 49.734 C 64.79 57.627 64.79 70.459 72.758 78.333 C 76.607 82.146 81.746 84.263 87.193 84.263 C 92.659 84.263 97.778 82.146 101.627 78.333 Z  M 48.854 102.013 C 49.701 102.852 51.087 102.852 51.934 102.013 L 67.061 87.008 C 67.908 86.169 67.908 84.796 67.061 83.958 C 66.638 83.538 66.079 83.328 65.521 83.328 C 64.963 83.328 64.405 83.538 63.982 83.958 L 48.835 98.963 C 48.007 99.821 48.007 101.174 48.854 102.013 L 48.854 102.013 Z " fill="rgb(198,160,255)"/><g><path d=" M 606.368 75.846 L 606.368 54.435 L 612.527 54.435 L 612.527 75.928 L 620.363 68.213 L 622.324 66.284 L 626.243 70.143 L 624.282 72.069 L 609.447 86.677 L 594.609 72.069 L 592.649 70.143 L 596.85 66.284 L 598.808 68.213 L 606.368 75.849 L 606.368 75.846 Z  M 648.078 71.792 C 648.358 67.11 646.959 62.702 643.88 59.393 C 640.752 56.075 636.402 54.183 631.842 54.158 L 630.72 54.158 C 629.55 54.133 628.531 53.352 628.203 52.229 C 625.683 44.238 618.123 38.45 609.444 38.45 C 603.568 38.45 598.248 40.932 594.609 45.338 C 590.971 49.749 589.29 55.261 590.132 61.049 C 587.332 59.946 583.973 60.496 581.453 62.149 C 578.933 64.078 577.252 66.834 577.252 69.866 C 573.843 70.15 570.611 71.5 568.013 73.725 C 565.776 76.204 564.375 79.51 564.375 82.819 C 564.375 86.124 565.776 89.433 568.296 91.912 C 570.754 94.355 574.069 95.74 577.534 95.771 L 641.36 95.771 C 644.825 95.739 648.14 94.354 650.598 91.912 C 653.115 89.43 654.517 86.124 654.517 82.819 C 654.532 78.247 652.065 74.027 648.075 71.796 L 648.078 71.792 Z  M 632.681 48.647 C 629.042 39.276 619.804 32.935 609.447 32.935 C 596.655 32.912 585.906 42.543 584.529 55.261 C 578.933 56.087 574.455 59.943 572.494 65.181 C 564.375 67.387 558.778 74.551 558.778 82.819 C 558.778 87.777 560.736 92.465 564.375 95.771 C 567.737 99.353 572.494 101.282 577.534 101.282 L 641.36 101.282 C 646.397 101.282 651.158 99.353 654.517 95.771 C 658.155 92.462 660.116 87.777 660.116 82.819 C 660.116 77.58 657.596 72.345 653.674 68.763 C 652.835 58.017 643.88 49.196 632.681 48.647 Z " fill-rule="evenodd" fill="rgb(180,131,255)"/><rect x="552.887" y="11.09" width="113.121" height="113.121" transform="matrix(1,0,0,1,0,0)" fill="none"/></g><g style="opacity:0.45;" filter="url(#aBWAxaVsZvHtqlwrzEfJLLBafSONP68y)"><path d=" M 624.489 75.846 L 624.489 54.435 L 630.648 54.435 L 630.648 75.928 L 638.485 68.213 L 640.445 66.284 L 644.364 70.143 L 642.403 72.069 L 627.568 86.677 L 612.731 72.069 L 610.77 70.143 L 614.971 66.284 L 616.929 68.213 L 624.489 75.849 L 624.489 75.846 Z  M 666.199 71.792 C 666.479 67.11 665.081 62.702 662.001 59.393 C 658.873 56.075 654.523 54.183 649.963 54.158 L 648.841 54.158 C 647.671 54.133 646.652 53.352 646.325 52.229 C 643.804 44.238 636.244 38.45 627.565 38.45 C 621.689 38.45 616.369 40.932 612.731 45.338 C 609.092 49.749 607.411 55.261 608.253 61.049 C 605.453 59.946 602.094 60.496 599.574 62.149 C 597.054 64.078 595.373 66.834 595.373 69.866 C 591.965 70.15 588.732 71.5 586.135 73.725 C 583.897 76.204 582.496 79.51 582.496 82.819 C 582.496 86.124 583.897 89.433 586.417 91.912 C 588.875 94.355 592.191 95.74 595.656 95.771 L 659.481 95.771 C 662.946 95.739 666.261 94.354 668.719 91.912 C 671.236 89.43 672.638 86.124 672.638 82.819 C 672.653 78.247 670.187 74.027 666.196 71.796 L 666.199 71.792 Z  M 650.802 48.647 C 647.164 39.276 637.925 32.935 627.568 32.935 C 614.776 32.912 604.027 42.543 602.65 55.261 C 597.054 56.087 592.576 59.943 590.615 65.181 C 582.496 67.387 576.9 74.551 576.9 82.819 C 576.9 87.777 578.857 92.465 582.496 95.771 C 585.858 99.353 590.615 101.282 595.656 101.282 L 659.481 101.282 C 664.518 101.282 669.279 99.353 672.638 95.771 C 676.277 92.462 678.237 87.777 678.237 82.819 C 678.237 77.58 675.717 72.345 671.796 68.763 C 670.957 58.017 662.001 49.196 650.802 48.647 Z " fill-rule="evenodd" fill="rgb(180,131,255)"/><rect x="571.008" y="11.09" width="113.121" height="113.121" transform="matrix(1,0,0,1,0,0)" fill="none"/></g><defs><filter id="aBWAxaVsZvHtqlwrzEfJLLBafSONP68y" x="-200%" y="-200%" width="400%" height="400%" filterUnits="objectBoundingBox" color-interpolation-filters="sRGB"><feGaussianBlur xmlns="http://www.w3.org/2000/svg" stdDeviation="3.2631428877576614"/></filter></defs><g style="opacity:0.34;" filter="url(#MlcEWxyQrDVLpOeDAr1Rh2YHFa4omR3b)"><path d=" M 645.489 75.846 L 645.489 54.435 L 651.648 54.435 L 651.648 75.928 L 659.485 68.213 L 661.445 66.284 L 665.364 70.143 L 663.403 72.069 L 648.568 86.677 L 633.731 72.069 L 631.77 70.143 L 635.971 66.284 L 637.929 68.213 L 645.489 75.849 L 645.489 75.846 Z  M 687.199 71.792 C 687.479 67.11 686.081 62.702 683.001 59.393 C 679.873 56.075 675.523 54.183 670.963 54.158 L 669.841 54.158 C 668.671 54.133 667.652 53.352 667.325 52.229 C 664.804 44.238 657.244 38.45 648.565 38.45 C 642.689 38.45 637.369 40.932 633.731 45.338 C 630.092 49.749 628.411 55.261 629.253 61.049 C 626.453 59.946 623.094 60.496 620.574 62.149 C 618.054 64.078 616.373 66.834 616.373 69.866 C 612.965 70.15 609.732 71.5 607.135 73.725 C 604.897 76.204 603.496 79.51 603.496 82.819 C 603.496 86.124 604.897 89.433 607.417 91.912 C 609.875 94.355 613.191 95.74 616.656 95.771 L 680.481 95.771 C 683.946 95.739 687.261 94.354 689.719 91.912 C 692.236 89.43 693.638 86.124 693.638 82.819 C 693.653 78.247 691.187 74.027 687.196 71.796 L 687.199 71.792 Z  M 671.802 48.647 C 668.164 39.276 658.925 32.935 648.568 32.935 C 635.776 32.912 625.027 42.543 623.65 55.261 C 618.054 56.087 613.576 59.943 611.615 65.181 C 603.496 67.387 597.9 74.551 597.9 82.819 C 597.9 87.777 599.857 92.465 603.496 95.771 C 606.858 99.353 611.615 101.282 616.656 101.282 L 680.481 101.282 C 685.518 101.282 690.279 99.353 693.638 95.771 C 697.277 92.462 699.237 87.777 699.237 82.819 C 699.237 77.58 696.717 72.345 692.796 68.763 C 691.957 58.017 683.001 49.196 671.802 48.647 Z " fill-rule="evenodd" fill="rgb(180,131,255)"/><rect x="592.008" y="11.09" width="113.121" height="113.121" transform="matrix(1,0,0,1,0,0)" fill="none"/></g><defs><filter id="MlcEWxyQrDVLpOeDAr1Rh2YHFa4omR3b" x="-200%" y="-200%" width="400%" height="400%" filterUnits="objectBoundingBox" color-interpolation-filters="sRGB"><feGaussianBlur xmlns="http://www.w3.org/2000/svg" stdDeviation="5.882244416089469"/></filter></defs><path d=" M 442.437 38.963 L 416.087 38.963 C 412.343 38.963 409.284 42.006 409.284 45.766 L 409.284 96.681 C 409.284 100.425 412.327 103.483 416.087 103.483 L 442.437 103.483 C 446.18 103.483 449.239 100.441 449.239 96.681 L 449.239 45.75 C 449.239 42.006 446.196 38.963 442.437 38.963 L 442.437 38.963 Z  M 446.722 96.665 C 446.722 99.023 444.794 100.95 442.437 100.95 L 416.087 100.95 C 413.729 100.95 411.801 99.023 411.801 96.665 L 411.801 45.75 C 411.801 43.392 413.729 41.464 416.087 41.464 L 442.437 41.464 C 444.794 41.464 446.722 43.392 446.722 45.75 L 446.722 96.665 L 446.722 96.665 Z  M 414.398 89.273 L 444.141 89.273 L 444.141 47.789 L 414.398 47.789 L 414.398 89.273 Z  M 415.657 49.047 L 442.899 49.047 L 442.899 88.014 L 415.657 88.014 L 415.657 49.047 L 415.657 49.047 Z  M 429.262 91.679 C 427.317 91.679 425.741 93.256 425.741 95.201 C 425.741 97.146 427.318 98.722 429.263 98.722 C 431.208 98.721 432.784 97.144 432.784 95.199 C 432.784 93.254 431.207 91.678 429.262 91.679 L 429.262 91.679 Z  M 429.262 97.461 C 428.019 97.461 427 96.442 427 95.199 C 427 93.957 428.019 92.937 429.262 92.937 C 430.504 92.937 431.524 93.957 431.524 95.199 C 431.524 96.442 430.52 97.461 429.262 97.461 Z  M 429.262 46.514 C 429.979 46.514 430.642 46.13 431.001 45.509 C 431.359 44.887 431.358 44.121 430.999 43.5 C 430.64 42.878 429.976 42.496 429.259 42.497 C 428.149 42.498 427.25 43.398 427.251 44.507 C 427.252 45.617 428.152 46.515 429.262 46.514 L 429.262 46.514 Z  M 429.262 43.758 C 429.565 43.758 429.838 43.941 429.953 44.221 C 430.069 44.5 430.005 44.822 429.791 45.037 C 429.577 45.251 429.255 45.315 428.975 45.199 C 428.695 45.083 428.513 44.81 428.513 44.507 C 428.529 44.093 428.863 43.758 429.262 43.758 Z " fill="rgb(180,131,255)"/></g></svg>