<?xml version="1.0" standalone="no"?><!-- Generator: Gravit.io --><svg xmlns="http://www.w3.org/2000/svg" xmlns:xlink="http://www.w3.org/1999/xlink" style="isolation:isolate" viewBox="0 0 1071 169" width="1071" height="169"><defs><clipPath id="_clipPath_VCIL9JBCgGkZEZ49MzXCzmSvG7ggn8zg"><rect width="1071" height="169"/></clipPath></defs><g clip-path="url(#_clipPath_VCIL9JBCgGkZEZ49MzXCzmSvG7ggn8zg)"><path d=" M 984.493 139.392 L 984.493 139.392 L 979.913 139.392 L 979.913 125.792 L 984.493 125.792 L 984.493 125.792 Q 986.253 125.792 987.393 126.162 L 987.393 126.162 L 987.393 126.162 Q 988.533 126.532 989.163 127.382 L 989.163 127.382 L 989.163 127.382 Q 989.793 128.232 990.033 129.382 L 990.033 129.382 L 990.033 129.382 Q 990.273 130.532 990.273 132.372 L 990.273 132.372 L 990.273 132.372 Q 990.273 134.212 990.053 135.422 L 990.053 135.422 L 990.053 135.422 Q 989.833 136.632 989.223 137.582 L 989.223 137.582 L 989.223 137.582 Q 988.613 138.532 987.453 138.962 L 987.453 138.962 L 987.453 138.962 Q 986.293 139.392 984.493 139.392 Z  M 987.393 133.992 L 987.393 133.992 L 987.393 133.992 Q 987.433 133.352 987.433 132.222 L 987.433 132.222 L 987.433 132.222 Q 987.433 131.092 987.353 130.412 L 987.353 130.412 L 987.353 130.412 Q 987.273 129.732 986.973 129.172 L 986.973 129.172 L 986.973 129.172 Q 986.673 128.612 986.083 128.402 L 986.083 128.402 L 986.083 128.402 Q 985.493 128.192 984.493 128.192 L 984.493 128.192 L 982.673 128.192 L 982.673 136.992 L 984.493 136.992 L 984.493 136.992 Q 985.993 136.992 986.673 136.232 L 986.673 136.232 L 986.673 136.232 Q 987.253 135.612 987.393 133.992 Z  M 992.973 130.522 L 992.973 130.522 L 992.973 130.522 Q 994.033 129.152 996.513 129.152 L 996.513 129.152 L 996.513 129.152 Q 998.993 129.152 1000.053 130.522 L 1000.053 130.522 L 1000.053 130.522 Q 1001.113 131.892 1001.113 134.372 L 1001.113 134.372 L 1001.113 134.372 Q 1001.113 139.632 996.513 139.632 L 996.513 139.632 L 996.513 139.632 Q 991.913 139.632 991.913 134.372 L 991.913 134.372 L 991.913 134.372 Q 991.913 131.892 992.973 130.522 Z  M 995.043 136.632 L 995.043 136.632 L 995.043 136.632 Q 995.453 137.352 996.513 137.352 L 996.513 137.352 L 996.513 137.352 Q 997.573 137.352 997.983 136.632 L 997.983 136.632 L 997.983 136.632 Q 998.393 135.912 998.393 134.372 L 998.393 134.372 L 998.393 134.372 Q 998.393 132.832 997.983 132.132 L 997.983 132.132 L 997.983 132.132 Q 997.573 131.432 996.513 131.432 L 996.513 131.432 L 996.513 131.432 Q 995.453 131.432 995.043 132.132 L 995.043 132.132 L 995.043 132.132 Q 994.633 132.832 994.633 134.372 L 994.633 134.372 L 994.633 134.372 Q 994.633 135.912 995.043 136.632 Z  M 1004.213 139.392 L 1002.313 129.392 L 1004.953 129.392 L 1006.173 137.112 L 1006.653 137.112 L 1008.173 129.592 L 1010.933 129.592 L 1012.453 137.112 L 1012.933 137.112 L 1014.153 129.392 L 1016.793 129.392 L 1014.893 139.392 L 1010.693 139.392 L 1009.553 133.272 L 1008.413 139.392 L 1004.213 139.392 L 1004.213 139.392 Z  M 1021.193 131.912 L 1021.193 139.392 L 1018.513 139.392 L 1018.513 129.392 L 1021.173 129.392 L 1021.173 129.952 L 1021.173 129.952 Q 1022.533 129.152 1023.673 129.152 L 1023.673 129.152 L 1023.673 129.152 Q 1025.673 129.152 1026.433 130.332 L 1026.433 130.332 L 1026.433 130.332 Q 1027.193 131.512 1027.193 133.972 L 1027.193 133.972 L 1027.193 139.392 L 1024.513 139.392 L 1024.513 134.052 L 1024.513 134.052 Q 1024.513 132.772 1024.213 132.162 L 1024.213 132.162 L 1024.213 132.162 Q 1023.913 131.552 1023.013 131.552 L 1023.013 131.552 L 1023.013 131.552 Q 1022.193 131.552 1021.433 131.832 L 1021.433 131.832 L 1021.193 131.912 L 1021.193 131.912 Z  M 1032.373 139.392 L 1029.693 139.392 L 1029.693 125.392 L 1032.373 125.392 L 1032.373 139.392 L 1032.373 139.392 Z  M 1035.513 130.522 L 1035.513 130.522 L 1035.513 130.522 Q 1036.573 129.152 1039.053 129.152 L 1039.053 129.152 L 1039.053 129.152 Q 1041.533 129.152 1042.593 130.522 L 1042.593 130.522 L 1042.593 130.522 Q 1043.653 131.892 1043.653 134.372 L 1043.653 134.372 L 1043.653 134.372 Q 1043.653 139.632 1039.053 139.632 L 1039.053 139.632 L 1039.053 139.632 Q 1034.453 139.632 1034.453 134.372 L 1034.453 134.372 L 1034.453 134.372 Q 1034.453 131.892 1035.513 130.522 Z  M 1037.583 136.632 L 1037.583 136.632 L 1037.583 136.632 Q 1037.993 137.352 1039.053 137.352 L 1039.053 137.352 L 1039.053 137.352 Q 1040.113 137.352 1040.523 136.632 L 1040.523 136.632 L 1040.523 136.632 Q 1040.933 135.912 1040.933 134.372 L 1040.933 134.372 L 1040.933 134.372 Q 1040.933 132.832 1040.523 132.132 L 1040.523 132.132 L 1040.523 132.132 Q 1040.113 131.432 1039.053 131.432 L 1039.053 131.432 L 1039.053 131.432 Q 1037.993 131.432 1037.583 132.132 L 1037.583 132.132 L 1037.583 132.132 Q 1037.173 132.832 1037.173 134.372 L 1037.173 134.372 L 1037.173 134.372 Q 1037.173 135.912 1037.583 136.632 Z  M 1053.273 132.512 L 1053.273 132.512 L 1053.273 136.672 L 1053.273 136.672 Q 1053.313 137.152 1053.433 137.342 L 1053.433 137.342 L 1053.433 137.342 Q 1053.553 137.532 1053.933 137.612 L 1053.933 137.612 L 1053.853 139.632 L 1053.853 139.632 Q 1052.833 139.632 1052.223 139.492 L 1052.223 139.492 L 1052.223 139.492 Q 1051.613 139.352 1050.993 138.932 L 1050.993 138.932 L 1050.993 138.932 Q 1049.553 139.632 1048.053 139.632 L 1048.053 139.632 L 1048.053 139.632 Q 1044.953 139.632 1044.953 136.352 L 1044.953 136.352 L 1044.953 136.352 Q 1044.953 134.752 1045.813 134.082 L 1045.813 134.082 L 1045.813 134.082 Q 1046.673 133.412 1048.453 133.292 L 1048.453 133.292 L 1050.593 133.132 L 1050.593 132.512 L 1050.593 132.512 Q 1050.593 131.892 1050.313 131.662 L 1050.313 131.662 L 1050.313 131.662 Q 1050.033 131.432 1049.413 131.432 L 1049.413 131.432 L 1045.653 131.592 L 1045.573 129.732 L 1045.573 129.732 Q 1047.713 129.152 1049.643 129.152 L 1049.643 129.152 L 1049.643 129.152 Q 1051.573 129.152 1052.423 129.952 L 1052.423 129.952 L 1052.423 129.952 Q 1053.273 130.752 1053.273 132.512 Z  M 1050.593 134.992 L 1048.773 135.152 L 1048.773 135.152 Q 1047.653 135.252 1047.653 136.352 L 1047.653 136.352 L 1047.653 136.352 Q 1047.653 137.452 1048.633 137.452 L 1048.633 137.452 L 1048.633 137.452 Q 1049.393 137.452 1050.293 137.212 L 1050.293 137.212 L 1050.593 137.132 L 1050.593 134.992 L 1050.593 134.992 Z  M 1061.653 125.392 L 1064.333 125.392 L 1064.333 139.392 L 1061.673 139.392 L 1061.673 138.972 L 1061.673 138.972 Q 1060.273 139.632 1059.253 139.632 L 1059.253 139.632 L 1059.253 139.632 Q 1057.073 139.632 1056.213 138.372 L 1056.213 138.372 L 1056.213 138.372 Q 1055.353 137.112 1055.353 134.382 L 1055.353 134.382 L 1055.353 134.382 Q 1055.353 131.652 1056.383 130.402 L 1056.383 130.402 L 1056.383 130.402 Q 1057.413 129.152 1059.493 129.152 L 1059.493 129.152 L 1059.493 129.152 Q 1060.133 129.152 1061.273 129.352 L 1061.273 129.352 L 1061.653 129.432 L 1061.653 125.392 L 1061.653 125.392 Z  M 1061.373 136.992 L 1061.373 136.992 L 1061.653 136.932 L 1061.653 131.672 L 1061.653 131.672 Q 1060.553 131.472 1059.693 131.472 L 1059.693 131.472 L 1059.693 131.472 Q 1058.073 131.472 1058.073 134.352 L 1058.073 134.352 L 1058.073 134.352 Q 1058.073 135.912 1058.433 136.572 L 1058.433 136.572 L 1058.433 136.572 Q 1058.793 137.232 1059.623 137.232 L 1059.623 137.232 L 1059.623 137.232 Q 1060.453 137.232 1061.373 136.992 Z  M 932.013 139.392 L 929.253 139.392 L 929.253 125.792 L 933.953 125.792 L 936.353 135.712 L 938.753 125.792 L 943.453 125.792 L 943.453 139.392 L 940.693 139.392 L 940.693 128.872 L 940.393 128.872 L 937.733 138.792 L 934.973 138.792 L 932.313 128.872 L 932.013 128.872 L 932.013 139.392 L 932.013 139.392 Z  M 953.833 132.512 L 953.833 132.512 L 953.833 136.672 L 953.833 136.672 Q 953.873 137.152 953.993 137.342 L 953.993 137.342 L 953.993 137.342 Q 954.113 137.532 954.493 137.612 L 954.493 137.612 L 954.413 139.632 L 954.413 139.632 Q 953.393 139.632 952.783 139.492 L 952.783 139.492 L 952.783 139.492 Q 952.173 139.352 951.553 138.932 L 951.553 138.932 L 951.553 138.932 Q 950.113 139.632 948.613 139.632 L 948.613 139.632 L 948.613 139.632 Q 945.513 139.632 945.513 136.352 L 945.513 136.352 L 945.513 136.352 Q 945.513 134.752 946.373 134.082 L 946.373 134.082 L 946.373 134.082 Q 947.233 133.412 949.013 133.292 L 949.013 133.292 L 951.153 133.132 L 951.153 132.512 L 951.153 132.512 Q 951.153 131.892 950.873 131.662 L 950.873 131.662 L 950.873 131.662 Q 950.593 131.432 949.973 131.432 L 949.973 131.432 L 946.213 131.592 L 946.133 129.732 L 946.133 129.732 Q 948.273 129.152 950.203 129.152 L 950.203 129.152 L 950.203 129.152 Q 952.133 129.152 952.983 129.952 L 952.983 129.952 L 952.983 129.952 Q 953.833 130.752 953.833 132.512 Z  M 951.153 134.992 L 949.333 135.152 L 949.333 135.152 Q 948.213 135.252 948.213 136.352 L 948.213 136.352 L 948.213 136.352 Q 948.213 137.452 949.193 137.452 L 949.193 137.452 L 949.193 137.452 Q 949.953 137.452 950.853 137.212 L 950.853 137.212 L 951.153 137.132 L 951.153 134.992 L 951.153 134.992 Z  M 963.613 129.672 L 963.573 131.892 L 963.573 131.892 Q 961.093 131.572 960.103 131.572 L 960.103 131.572 L 960.103 131.572 Q 959.113 131.572 958.823 131.752 L 958.823 131.752 L 958.823 131.752 Q 958.533 131.932 958.533 132.322 L 958.533 132.322 L 958.533 132.322 Q 958.533 132.712 958.923 132.862 L 958.923 132.862 L 958.923 132.862 Q 959.313 133.012 960.923 133.302 L 960.923 133.302 L 960.923 133.302 Q 962.533 133.592 963.213 134.252 L 963.213 134.252 L 963.213 134.252 Q 963.893 134.912 963.893 136.392 L 963.893 136.392 L 963.893 136.392 Q 963.893 139.632 959.873 139.632 L 959.873 139.632 L 959.873 139.632 Q 958.553 139.632 956.673 139.272 L 956.673 139.272 L 956.033 139.152 L 956.113 136.912 L 956.113 136.912 Q 958.593 137.232 959.563 137.232 L 959.563 137.232 L 959.563 137.232 Q 960.533 137.232 960.883 137.042 L 960.883 137.042 L 960.883 137.042 Q 961.233 136.852 961.233 136.472 L 961.233 136.472 L 961.233 136.472 Q 961.233 136.092 960.863 135.912 L 960.863 135.912 L 960.863 135.912 Q 960.493 135.732 958.943 135.472 L 958.943 135.472 L 958.943 135.472 Q 957.393 135.212 956.633 134.592 L 956.633 134.592 L 956.633 134.592 Q 955.873 133.972 955.873 132.382 L 955.873 132.382 L 955.873 132.382 Q 955.873 130.792 956.953 129.982 L 956.953 129.982 L 956.953 129.982 Q 958.033 129.172 959.733 129.172 L 959.733 129.172 L 959.733 129.172 Q 960.913 129.172 962.953 129.552 L 962.953 129.552 L 963.613 129.672 L 963.613 129.672 Z  M 973.053 129.672 L 973.013 131.892 L 973.013 131.892 Q 970.533 131.572 969.543 131.572 L 969.543 131.572 L 969.543 131.572 Q 968.553 131.572 968.263 131.752 L 968.263 131.752 L 968.263 131.752 Q 967.973 131.932 967.973 132.322 L 967.973 132.322 L 967.973 132.322 Q 967.973 132.712 968.363 132.862 L 968.363 132.862 L 968.363 132.862 Q 968.753 133.012 970.363 133.302 L 970.363 133.302 L 970.363 133.302 Q 971.973 133.592 972.653 134.252 L 972.653 134.252 L 972.653 134.252 Q 973.333 134.912 973.333 136.392 L 973.333 136.392 L 973.333 136.392 Q 973.333 139.632 969.313 139.632 L 969.313 139.632 L 969.313 139.632 Q 967.993 139.632 966.113 139.272 L 966.113 139.272 L 965.473 139.152 L 965.553 136.912 L 965.553 136.912 Q 968.033 137.232 969.003 137.232 L 969.003 137.232 L 969.003 137.232 Q 969.973 137.232 970.323 137.042 L 970.323 137.042 L 970.323 137.042 Q 970.673 136.852 970.673 136.472 L 970.673 136.472 L 970.673 136.472 Q 970.673 136.092 970.303 135.912 L 970.303 135.912 L 970.303 135.912 Q 969.933 135.732 968.383 135.472 L 968.383 135.472 L 968.383 135.472 Q 966.833 135.212 966.073 134.592 L 966.073 134.592 L 966.073 134.592 Q 965.313 133.972 965.313 132.382 L 965.313 132.382 L 965.313 132.382 Q 965.313 130.792 966.393 129.982 L 966.393 129.982 L 966.393 129.982 Q 967.473 129.172 969.173 129.172 L 969.173 129.172 L 969.173 129.172 Q 970.353 129.172 972.393 129.552 L 972.393 129.552 L 973.053 129.672 L 973.053 129.672 Z " fill-rule="evenodd" fill="rgb(81,52,123)"/><path d=" M 71.059 134.145 L 71.059 134.145 L 71.059 134.145 Q 71.059 136.078 69.667 137.191 L 69.667 137.191 L 69.667 137.191 Q 68.275 138.305 65.795 138.305 L 65.795 138.305 L 65.795 138.305 Q 63.51 138.305 61.752 137.445 L 61.752 137.445 L 61.752 134.633 L 61.752 134.633 Q 63.197 135.277 64.198 135.541 L 64.198 135.541 L 64.198 135.541 Q 65.199 135.805 66.029 135.805 L 66.029 135.805 L 66.029 135.805 Q 67.025 135.805 67.558 135.424 L 67.558 135.424 L 67.558 135.424 Q 68.09 135.043 68.09 134.291 L 68.09 134.291 L 68.09 134.291 Q 68.09 133.871 67.855 133.544 L 67.855 133.544 L 67.855 133.544 Q 67.621 133.217 67.167 132.914 L 67.167 132.914 L 67.167 132.914 Q 66.713 132.611 65.316 131.947 L 65.316 131.947 L 65.316 131.947 Q 64.008 131.332 63.353 130.766 L 63.353 130.766 L 63.353 130.766 Q 62.699 130.199 62.309 129.447 L 62.309 129.447 L 62.309 129.447 Q 61.918 128.695 61.918 127.689 L 61.918 127.689 L 61.918 127.689 Q 61.918 125.795 63.202 124.711 L 63.202 124.711 L 63.202 124.711 Q 64.486 123.627 66.752 123.627 L 66.752 123.627 L 66.752 123.627 Q 67.865 123.627 68.876 123.891 L 68.876 123.891 L 68.876 123.891 Q 69.887 124.154 70.99 124.633 L 70.99 124.633 L 70.014 126.986 L 70.014 126.986 Q 68.871 126.518 68.124 126.332 L 68.124 126.332 L 68.124 126.332 Q 67.377 126.147 66.654 126.147 L 66.654 126.147 L 66.654 126.147 Q 65.795 126.147 65.336 126.547 L 65.336 126.547 L 65.336 126.547 Q 64.877 126.947 64.877 127.592 L 64.877 127.592 L 64.877 127.592 Q 64.877 127.992 65.062 128.29 L 65.062 128.29 L 65.062 128.29 Q 65.248 128.588 65.653 128.866 L 65.653 128.866 L 65.653 128.866 Q 66.059 129.145 67.572 129.867 L 67.572 129.867 L 67.572 129.867 Q 69.574 130.824 70.316 131.786 L 70.316 131.786 L 70.316 131.786 Q 71.059 132.748 71.059 134.145 Z  M 77.934 129.105 L 77.934 129.105 L 77.934 129.105 Q 76.986 129.105 76.449 129.706 L 76.449 129.706 L 76.449 129.706 Q 75.912 130.307 75.834 131.41 L 75.834 131.41 L 80.014 131.41 L 80.014 131.41 Q 79.994 130.307 79.437 129.706 L 79.437 129.706 L 79.437 129.706 Q 78.881 129.105 77.934 129.105 Z  M 78.353 138.305 L 78.353 138.305 L 78.353 138.305 Q 75.717 138.305 74.232 136.85 L 74.232 136.85 L 74.232 136.85 Q 72.748 135.395 72.748 132.729 L 72.748 132.729 L 72.748 132.729 Q 72.748 129.984 74.12 128.485 L 74.12 128.485 L 74.12 128.485 Q 75.492 126.986 77.914 126.986 L 77.914 126.986 L 77.914 126.986 Q 80.228 126.986 81.518 128.305 L 81.518 128.305 L 81.518 128.305 Q 82.807 129.623 82.807 131.947 L 82.807 131.947 L 82.807 133.393 L 75.766 133.393 L 75.766 133.393 Q 75.814 134.662 76.518 135.375 L 76.518 135.375 L 76.518 135.375 Q 77.221 136.088 78.49 136.088 L 78.49 136.088 L 78.49 136.088 Q 79.477 136.088 80.355 135.883 L 80.355 135.883 L 80.355 135.883 Q 81.234 135.678 82.191 135.229 L 82.191 135.229 L 82.191 137.533 L 82.191 137.533 Q 81.41 137.924 80.521 138.114 L 80.521 138.114 L 80.521 138.114 Q 79.633 138.305 78.353 138.305 Z  M 94.242 138.109 L 92.162 138.109 L 91.586 136.625 L 91.508 136.625 L 91.508 136.625 Q 90.756 137.572 89.96 137.938 L 89.96 137.938 L 89.96 137.938 Q 89.164 138.305 87.885 138.305 L 87.885 138.305 L 87.885 138.305 Q 86.312 138.305 85.409 137.406 L 85.409 137.406 L 85.409 137.406 Q 84.506 136.508 84.506 134.848 L 84.506 134.848 L 84.506 134.848 Q 84.506 133.109 85.722 132.284 L 85.722 132.284 L 85.722 132.284 Q 86.937 131.459 89.389 131.371 L 89.389 131.371 L 91.283 131.313 L 91.283 130.834 L 91.283 130.834 Q 91.283 129.174 89.584 129.174 L 89.584 129.174 L 89.584 129.174 Q 88.275 129.174 86.508 129.965 L 86.508 129.965 L 85.521 127.953 L 85.521 127.953 Q 87.406 126.967 89.701 126.967 L 89.701 126.967 L 89.701 126.967 Q 91.898 126.967 93.07 127.924 L 93.07 127.924 L 93.07 127.924 Q 94.242 128.881 94.242 130.834 L 94.242 130.834 L 94.242 138.109 L 94.242 138.109 Z  M 91.283 133.949 L 91.283 133.051 L 90.131 133.09 L 90.131 133.09 Q 88.832 133.129 88.197 133.559 L 88.197 133.559 L 88.197 133.559 Q 87.562 133.988 87.562 134.867 L 87.562 134.867 L 87.562 134.867 Q 87.562 136.127 89.008 136.127 L 89.008 136.127 L 89.008 136.127 Q 90.043 136.127 90.663 135.531 L 90.663 135.531 L 90.663 135.531 Q 91.283 134.936 91.283 133.949 L 91.283 133.949 L 91.283 133.949 Z  M 103.402 126.986 L 103.402 126.986 L 103.402 126.986 Q 104.008 126.986 104.408 127.074 L 104.408 127.074 L 104.184 129.867 L 104.184 129.867 Q 103.822 129.77 103.305 129.77 L 103.305 129.77 L 103.305 129.77 Q 101.879 129.77 101.083 130.502 L 101.083 130.502 L 101.083 130.502 Q 100.287 131.234 100.287 132.553 L 100.287 132.553 L 100.287 138.109 L 97.309 138.109 L 97.309 127.191 L 99.564 127.191 L 100.004 129.027 L 100.15 129.027 L 100.15 129.027 Q 100.658 128.109 101.522 127.548 L 101.522 127.548 L 101.522 127.548 Q 102.387 126.986 103.402 126.986 Z  M 110.824 138.305 L 110.824 138.305 L 110.824 138.305 Q 105.727 138.305 105.727 132.709 L 105.727 132.709 L 105.727 132.709 Q 105.727 129.926 107.113 128.456 L 107.113 128.456 L 107.113 128.456 Q 108.5 126.986 111.088 126.986 L 111.088 126.986 L 111.088 126.986 Q 112.982 126.986 114.486 127.729 L 114.486 127.729 L 113.607 130.033 L 113.607 130.033 Q 112.904 129.75 112.299 129.569 L 112.299 129.569 L 112.299 129.569 Q 111.693 129.389 111.088 129.389 L 111.088 129.389 L 111.088 129.389 Q 108.764 129.389 108.764 132.689 L 108.764 132.689 L 108.764 132.689 Q 108.764 135.893 111.088 135.893 L 111.088 135.893 L 111.088 135.893 Q 111.947 135.893 112.68 135.663 L 112.68 135.663 L 112.68 135.663 Q 113.412 135.434 114.144 134.945 L 114.144 134.945 L 114.144 137.494 L 114.144 137.494 Q 113.422 137.953 112.685 138.129 L 112.685 138.129 L 112.685 138.129 Q 111.947 138.305 110.824 138.305 Z  M 126.752 130.99 L 126.752 138.109 L 123.773 138.109 L 123.773 131.732 L 123.773 131.732 Q 123.773 129.369 122.016 129.369 L 122.016 129.369 L 122.016 129.369 Q 120.766 129.369 120.209 130.219 L 120.209 130.219 L 120.209 130.219 Q 119.652 131.068 119.652 132.973 L 119.652 132.973 L 119.652 138.109 L 116.674 138.109 L 116.674 122.914 L 119.652 122.914 L 119.652 126.01 L 119.652 126.01 Q 119.652 126.371 119.584 127.709 L 119.584 127.709 L 119.516 128.588 L 119.672 128.588 L 119.672 128.588 Q 120.668 126.986 122.836 126.986 L 122.836 126.986 L 122.836 126.986 Q 124.76 126.986 125.756 128.022 L 125.756 128.022 L 125.756 128.022 Q 126.752 129.057 126.752 130.99 L 126.752 130.99 L 126.752 130.99 Z  M 3.764 126.313 L 3.764 130.17 L 4.74 130.17 L 4.74 130.17 Q 6.176 130.17 6.859 129.691 L 6.859 129.691 L 6.859 129.691 Q 7.543 129.213 7.543 128.188 L 7.543 128.188 L 7.543 128.188 Q 7.543 127.172 6.845 126.742 L 6.845 126.742 L 6.845 126.742 Q 6.146 126.313 4.682 126.313 L 4.682 126.313 L 3.764 126.313 L 3.764 126.313 Z  M 5.375 132.631 L 3.764 132.631 L 3.764 138.109 L 0.736 138.109 L 0.736 123.832 L 4.896 123.832 L 4.896 123.832 Q 7.807 123.832 9.203 124.892 L 9.203 124.892 L 9.203 124.892 Q 10.6 125.951 10.6 128.109 L 10.6 128.109 L 10.6 128.109 Q 10.6 129.369 9.906 130.351 L 9.906 130.351 L 9.906 130.351 Q 9.213 131.332 7.943 131.889 L 7.943 131.889 L 7.943 131.889 Q 11.166 136.703 12.143 138.109 L 12.143 138.109 L 8.783 138.109 L 5.375 132.631 L 5.375 132.631 Z  M 22.719 138.109 L 20.639 138.109 L 20.062 136.625 L 19.984 136.625 L 19.984 136.625 Q 19.232 137.572 18.436 137.938 L 18.436 137.938 L 18.436 137.938 Q 17.641 138.305 16.361 138.305 L 16.361 138.305 L 16.361 138.305 Q 14.789 138.305 13.886 137.406 L 13.886 137.406 L 13.886 137.406 Q 12.982 136.508 12.982 134.848 L 12.982 134.848 L 12.982 134.848 Q 12.982 133.109 14.198 132.284 L 14.198 132.284 L 14.198 132.284 Q 15.414 131.459 17.865 131.371 L 17.865 131.371 L 19.76 131.313 L 19.76 130.834 L 19.76 130.834 Q 19.76 129.174 18.06 129.174 L 18.06 129.174 L 18.06 129.174 Q 16.752 129.174 14.984 129.965 L 14.984 129.965 L 13.998 127.953 L 13.998 127.953 Q 15.883 126.967 18.178 126.967 L 18.178 126.967 L 18.178 126.967 Q 20.375 126.967 21.547 127.924 L 21.547 127.924 L 21.547 127.924 Q 22.719 128.881 22.719 130.834 L 22.719 130.834 L 22.719 138.109 L 22.719 138.109 Z  M 19.76 133.949 L 19.76 133.051 L 18.607 133.09 L 18.607 133.09 Q 17.309 133.129 16.674 133.559 L 16.674 133.559 L 16.674 133.559 Q 16.039 133.988 16.039 134.867 L 16.039 134.867 L 16.039 134.867 Q 16.039 136.127 17.484 136.127 L 17.484 136.127 L 17.484 136.127 Q 18.519 136.127 19.14 135.531 L 19.14 135.531 L 19.14 135.531 Q 19.76 134.936 19.76 133.949 L 19.76 133.949 L 19.76 133.949 Z  M 31.781 138.305 L 31.781 138.305 L 31.781 138.305 Q 29.857 138.305 28.764 136.908 L 28.764 136.908 L 28.607 136.908 L 28.607 136.908 Q 28.764 138.275 28.764 138.49 L 28.764 138.49 L 28.764 142.914 L 25.785 142.914 L 25.785 127.191 L 28.207 127.191 L 28.627 128.607 L 28.764 128.607 L 28.764 128.607 Q 29.809 126.986 31.859 126.986 L 31.859 126.986 L 31.859 126.986 Q 33.793 126.986 34.887 128.48 L 34.887 128.48 L 34.887 128.48 Q 35.98 129.975 35.98 132.631 L 35.98 132.631 L 35.98 132.631 Q 35.98 134.379 35.468 135.668 L 35.468 135.668 L 35.468 135.668 Q 34.955 136.957 34.008 137.631 L 34.008 137.631 L 34.008 137.631 Q 33.06 138.305 31.781 138.305 Z  M 30.902 129.369 L 30.902 129.369 L 30.902 129.369 Q 29.799 129.369 29.291 130.048 L 29.291 130.048 L 29.291 130.048 Q 28.783 130.727 28.764 132.289 L 28.764 132.289 L 28.764 132.611 L 28.764 132.611 Q 28.764 134.369 29.286 135.131 L 29.286 135.131 L 29.286 135.131 Q 29.809 135.893 30.941 135.893 L 30.941 135.893 L 30.941 135.893 Q 32.943 135.893 32.943 132.592 L 32.943 132.592 L 32.943 132.592 Q 32.943 130.98 32.45 130.175 L 32.45 130.175 L 32.45 130.175 Q 31.957 129.369 30.902 129.369 Z  M 38.314 124.369 L 38.314 124.369 L 38.314 124.369 Q 38.314 122.914 39.935 122.914 L 39.935 122.914 L 39.935 122.914 Q 41.557 122.914 41.557 124.369 L 41.557 124.369 L 41.557 124.369 Q 41.557 125.063 41.151 125.448 L 41.151 125.448 L 41.151 125.448 Q 40.746 125.834 39.935 125.834 L 39.935 125.834 L 39.935 125.834 Q 38.314 125.834 38.314 124.369 Z  M 41.42 127.191 L 41.42 138.109 L 38.441 138.109 L 38.441 127.191 L 41.42 127.191 L 41.42 127.191 Z  M 48.002 138.305 L 48.002 138.305 L 48.002 138.305 Q 46.078 138.305 44.979 136.811 L 44.979 136.811 L 44.979 136.811 Q 43.881 135.316 43.881 132.67 L 43.881 132.67 L 43.881 132.67 Q 43.881 129.984 44.999 128.485 L 44.999 128.485 L 44.999 128.485 Q 46.117 126.986 48.08 126.986 L 48.08 126.986 L 48.08 126.986 Q 50.141 126.986 51.225 128.588 L 51.225 128.588 L 51.322 128.588 L 51.322 128.588 Q 51.098 127.367 51.098 126.41 L 51.098 126.41 L 51.098 122.914 L 54.086 122.914 L 54.086 138.109 L 51.801 138.109 L 51.225 136.693 L 51.098 136.693 L 51.098 136.693 Q 50.082 138.305 48.002 138.305 Z  M 49.047 135.932 L 49.047 135.932 L 49.047 135.932 Q 50.189 135.932 50.722 135.268 L 50.722 135.268 L 50.722 135.268 Q 51.254 134.604 51.303 133.012 L 51.303 133.012 L 51.303 132.689 L 51.303 132.689 Q 51.303 130.932 50.761 130.17 L 50.761 130.17 L 50.761 130.17 Q 50.219 129.408 48.998 129.408 L 48.998 129.408 L 48.998 129.408 Q 48.002 129.408 47.45 130.253 L 47.45 130.253 L 47.45 130.253 Q 46.898 131.098 46.898 132.709 L 46.898 132.709 L 46.898 132.709 Q 46.898 134.32 47.455 135.126 L 47.455 135.126 L 47.455 135.126 Q 48.012 135.932 49.047 135.932 Z " fill-rule="evenodd" fill="rgb(81,52,123)"/><path d=" M 278.836 132.465 L 278.836 138.109 L 275.857 138.109 L 275.857 123.832 L 284.041 123.832 L 284.041 126.313 L 278.836 126.313 L 278.836 129.994 L 283.68 129.994 L 283.68 132.465 L 278.836 132.465 L 278.836 132.465 Z  M 292.693 126.986 L 292.693 126.986 L 292.693 126.986 Q 293.299 126.986 293.699 127.074 L 293.699 127.074 L 293.474 129.867 L 293.474 129.867 Q 293.113 129.77 292.596 129.77 L 292.596 129.77 L 292.596 129.77 Q 291.17 129.77 290.374 130.502 L 290.374 130.502 L 290.374 130.502 Q 289.578 131.234 289.578 132.553 L 289.578 132.553 L 289.578 138.109 L 286.599 138.109 L 286.599 127.191 L 288.855 127.191 L 289.295 129.027 L 289.441 129.027 L 289.441 129.027 Q 289.949 128.109 290.813 127.548 L 290.813 127.548 L 290.813 127.548 Q 291.678 126.986 292.693 126.986 Z  M 300.203 129.105 L 300.203 129.105 L 300.203 129.105 Q 299.256 129.105 298.719 129.706 L 298.719 129.706 L 298.719 129.706 Q 298.182 130.307 298.103 131.41 L 298.103 131.41 L 302.283 131.41 L 302.283 131.41 Q 302.264 130.307 301.707 129.706 L 301.707 129.706 L 301.707 129.706 Q 301.15 129.105 300.203 129.105 Z  M 300.623 138.305 L 300.623 138.305 L 300.623 138.305 Q 297.986 138.305 296.502 136.85 L 296.502 136.85 L 296.502 136.85 Q 295.017 135.395 295.017 132.729 L 295.017 132.729 L 295.017 132.729 Q 295.017 129.984 296.39 128.485 L 296.39 128.485 L 296.39 128.485 Q 297.762 126.986 300.183 126.986 L 300.183 126.986 L 300.183 126.986 Q 302.498 126.986 303.787 128.305 L 303.787 128.305 L 303.787 128.305 Q 305.076 129.623 305.076 131.947 L 305.076 131.947 L 305.076 133.393 L 298.035 133.393 L 298.035 133.393 Q 298.084 134.662 298.787 135.375 L 298.787 135.375 L 298.787 135.375 Q 299.49 136.088 300.76 136.088 L 300.76 136.088 L 300.76 136.088 Q 301.746 136.088 302.625 135.883 L 302.625 135.883 L 302.625 135.883 Q 303.504 135.678 304.461 135.229 L 304.461 135.229 L 304.461 137.533 L 304.461 137.533 Q 303.68 137.924 302.791 138.114 L 302.791 138.114 L 302.791 138.114 Q 301.902 138.305 300.623 138.305 Z  M 312.019 129.105 L 312.019 129.105 L 312.019 129.105 Q 311.072 129.105 310.535 129.706 L 310.535 129.706 L 310.535 129.706 Q 309.998 130.307 309.92 131.41 L 309.92 131.41 L 314.099 131.41 L 314.099 131.41 Q 314.08 130.307 313.523 129.706 L 313.523 129.706 L 313.523 129.706 Q 312.967 129.105 312.019 129.105 Z  M 312.439 138.305 L 312.439 138.305 L 312.439 138.305 Q 309.803 138.305 308.318 136.85 L 308.318 136.85 L 308.318 136.85 Q 306.834 135.395 306.834 132.729 L 306.834 132.729 L 306.834 132.729 Q 306.834 129.984 308.206 128.485 L 308.206 128.485 L 308.206 128.485 Q 309.578 126.986 312 126.986 L 312 126.986 L 312 126.986 Q 314.314 126.986 315.603 128.305 L 315.603 128.305 L 315.603 128.305 Q 316.892 129.623 316.892 131.947 L 316.892 131.947 L 316.892 133.393 L 309.851 133.393 L 309.851 133.393 Q 309.9 134.662 310.603 135.375 L 310.603 135.375 L 310.603 135.375 Q 311.307 136.088 312.576 136.088 L 312.576 136.088 L 312.576 136.088 Q 313.562 136.088 314.441 135.883 L 314.441 135.883 L 314.441 135.883 Q 315.32 135.678 316.277 135.229 L 316.277 135.229 L 316.277 137.533 L 316.277 137.533 Q 315.496 137.924 314.607 138.114 L 314.607 138.114 L 314.607 138.114 Q 313.719 138.305 312.439 138.305 Z  M 224.861 123.832 L 224.861 138.109 L 221.844 138.109 L 221.844 129.848 L 221.873 128.49 L 221.922 127.006 L 221.922 127.006 Q 221.17 127.758 220.877 127.992 L 220.877 127.992 L 219.236 129.311 L 217.781 127.494 L 222.381 123.832 L 224.861 123.832 L 224.861 123.832 Z  M 238.719 130.971 L 238.719 130.971 L 238.719 130.971 Q 238.719 134.711 237.493 136.508 L 237.493 136.508 L 237.493 136.508 Q 236.267 138.305 233.719 138.305 L 233.719 138.305 L 233.719 138.305 Q 231.248 138.305 229.993 136.449 L 229.993 136.449 L 229.993 136.449 Q 228.738 134.594 228.738 130.971 L 228.738 130.971 L 228.738 130.971 Q 228.738 127.191 229.959 125.399 L 229.959 125.399 L 229.959 125.399 Q 231.18 123.607 233.719 123.607 L 233.719 123.607 L 233.719 123.607 Q 236.189 123.607 237.454 125.482 L 237.454 125.482 L 237.454 125.482 Q 238.719 127.357 238.719 130.971 Z  M 231.736 130.971 L 231.736 130.971 L 231.736 130.971 Q 231.736 133.598 232.19 134.735 L 232.19 134.735 L 232.19 134.735 Q 232.644 135.873 233.719 135.873 L 233.719 135.873 L 233.719 135.873 Q 234.773 135.873 235.242 134.721 L 235.242 134.721 L 235.242 134.721 Q 235.711 133.568 235.711 130.971 L 235.711 130.971 L 235.711 130.971 Q 235.711 128.344 235.237 127.196 L 235.237 127.196 L 235.237 127.196 Q 234.764 126.049 233.719 126.049 L 233.719 126.049 L 233.719 126.049 Q 232.654 126.049 232.195 127.196 L 232.195 127.196 L 232.195 127.196 Q 231.736 128.344 231.736 130.971 Z  M 250.135 130.971 L 250.135 130.971 L 250.135 130.971 Q 250.135 134.711 248.909 136.508 L 248.909 136.508 L 248.909 136.508 Q 247.683 138.305 245.135 138.305 L 245.135 138.305 L 245.135 138.305 Q 242.664 138.305 241.409 136.449 L 241.409 136.449 L 241.409 136.449 Q 240.154 134.594 240.154 130.971 L 240.154 130.971 L 240.154 130.971 Q 240.154 127.191 241.375 125.399 L 241.375 125.399 L 241.375 125.399 Q 242.596 123.607 245.135 123.607 L 245.135 123.607 L 245.135 123.607 Q 247.605 123.607 248.87 125.482 L 248.87 125.482 L 248.87 125.482 Q 250.135 127.357 250.135 130.971 Z  M 243.152 130.971 L 243.152 130.971 L 243.152 130.971 Q 243.152 133.598 243.606 134.735 L 243.606 134.735 L 243.606 134.735 Q 244.06 135.873 245.135 135.873 L 245.135 135.873 L 245.135 135.873 Q 246.189 135.873 246.658 134.721 L 246.658 134.721 L 246.658 134.721 Q 247.127 133.568 247.127 130.971 L 247.127 130.971 L 247.127 130.971 Q 247.127 128.344 246.653 127.196 L 246.653 127.196 L 246.653 127.196 Q 246.18 126.049 245.135 126.049 L 245.135 126.049 L 245.135 126.049 Q 244.07 126.049 243.611 127.196 L 243.611 127.196 L 243.611 127.196 Q 243.152 128.344 243.152 130.971 Z  M 253.924 128.109 L 253.924 128.109 L 253.924 128.109 Q 253.924 129.35 254.143 129.96 L 254.143 129.96 L 254.143 129.96 Q 254.363 130.57 254.851 130.57 L 254.851 130.57 L 254.851 130.57 Q 255.789 130.57 255.789 128.109 L 255.789 128.109 L 255.789 128.109 Q 255.789 125.668 254.851 125.668 L 254.851 125.668 L 254.851 125.668 Q 254.363 125.668 254.143 126.269 L 254.143 126.269 L 254.143 126.269 Q 253.924 126.869 253.924 128.109 Z  M 258.25 128.09 L 258.25 128.09 L 258.25 128.09 Q 258.25 130.336 257.381 131.464 L 257.381 131.464 L 257.381 131.464 Q 256.512 132.592 254.832 132.592 L 254.832 132.592 L 254.832 132.592 Q 253.221 132.592 252.342 131.435 L 252.342 131.435 L 252.342 131.435 Q 251.463 130.277 251.463 128.09 L 251.463 128.09 L 251.463 128.09 Q 251.463 123.627 254.832 123.627 L 254.832 123.627 L 254.832 123.627 Q 256.482 123.627 257.366 124.784 L 257.366 124.784 L 257.366 124.784 Q 258.25 125.941 258.25 128.09 Z  M 262.625 123.832 L 264.969 123.832 L 257.049 138.109 L 254.705 138.109 L 262.625 123.832 L 262.625 123.832 Z  M 263.924 133.813 L 263.924 133.813 L 263.924 133.813 Q 263.924 135.053 264.143 135.663 L 264.143 135.663 L 264.143 135.663 Q 264.363 136.273 264.851 136.273 L 264.851 136.273 L 264.851 136.273 Q 265.789 136.273 265.789 133.813 L 265.789 133.813 L 265.789 133.813 Q 265.789 131.371 264.851 131.371 L 264.851 131.371 L 264.851 131.371 Q 264.363 131.371 264.143 131.972 L 264.143 131.972 L 264.143 131.972 Q 263.924 132.572 263.924 133.813 Z  M 268.25 133.793 L 268.25 133.793 L 268.25 133.793 Q 268.25 136.029 267.381 137.157 L 267.381 137.157 L 267.381 137.157 Q 266.512 138.285 264.832 138.285 L 264.832 138.285 L 264.832 138.285 Q 263.221 138.285 262.342 137.128 L 262.342 137.128 L 262.342 137.128 Q 261.463 135.971 261.463 133.793 L 261.463 133.793 L 261.463 133.793 Q 261.463 129.33 264.832 129.33 L 264.832 129.33 L 264.832 129.33 Q 266.482 129.33 267.366 130.487 L 267.366 130.487 L 267.366 130.487 Q 268.25 131.645 268.25 133.793 Z " fill-rule="evenodd" fill="rgb(81,52,123)"/><path d=" M 781.785 139.701 L 778.523 139.701 L 777.488 136.303 L 772.283 136.303 L 771.248 139.701 L 767.986 139.701 L 773.025 125.365 L 776.727 125.365 L 781.785 139.701 L 781.785 139.701 Z  M 773.045 133.764 L 776.766 133.764 L 776.766 133.764 Q 775.33 129.145 775.149 128.539 L 775.149 128.539 L 775.149 128.539 Q 774.969 127.934 774.891 127.582 L 774.891 127.582 L 774.891 127.582 Q 774.568 128.832 773.045 133.764 L 773.045 133.764 L 773.045 133.764 Z  M 787.781 139.897 L 787.781 139.897 L 787.781 139.897 Q 782.684 139.897 782.684 134.301 L 782.684 134.301 L 782.684 134.301 Q 782.684 131.518 784.07 130.048 L 784.07 130.048 L 784.07 130.048 Q 785.457 128.578 788.045 128.578 L 788.045 128.578 L 788.045 128.578 Q 789.939 128.578 791.443 129.32 L 791.443 129.32 L 790.564 131.625 L 790.564 131.625 Q 789.861 131.342 789.256 131.161 L 789.256 131.161 L 789.256 131.161 Q 788.65 130.981 788.045 130.981 L 788.045 130.981 L 788.045 130.981 Q 785.721 130.981 785.721 134.281 L 785.721 134.281 L 785.721 134.281 Q 785.721 137.484 788.045 137.484 L 788.045 137.484 L 788.045 137.484 Q 788.904 137.484 789.637 137.255 L 789.637 137.255 L 789.637 137.255 Q 790.369 137.025 791.102 136.537 L 791.102 136.537 L 791.102 139.086 L 791.102 139.086 Q 790.379 139.545 789.642 139.721 L 789.642 139.721 L 789.642 139.721 Q 788.904 139.897 787.781 139.897 Z  M 798.064 139.897 L 798.064 139.897 L 798.064 139.897 Q 792.967 139.897 792.967 134.301 L 792.967 134.301 L 792.967 134.301 Q 792.967 131.518 794.353 130.048 L 794.353 130.048 L 794.353 130.048 Q 795.74 128.578 798.328 128.578 L 798.328 128.578 L 798.328 128.578 Q 800.223 128.578 801.727 129.32 L 801.727 129.32 L 800.848 131.625 L 800.848 131.625 Q 800.144 131.342 799.539 131.161 L 799.539 131.161 L 799.539 131.161 Q 798.934 130.981 798.328 130.981 L 798.328 130.981 L 798.328 130.981 Q 796.004 130.981 796.004 134.281 L 796.004 134.281 L 796.004 134.281 Q 796.004 137.484 798.328 137.484 L 798.328 137.484 L 798.328 137.484 Q 799.187 137.484 799.92 137.255 L 799.92 137.255 L 799.92 137.255 Q 800.652 137.025 801.385 136.537 L 801.385 136.537 L 801.385 139.086 L 801.385 139.086 Q 800.662 139.545 799.925 139.721 L 799.925 139.721 L 799.925 139.721 Q 799.187 139.897 798.064 139.897 Z  M 808.435 130.697 L 808.435 130.697 L 808.435 130.697 Q 807.488 130.697 806.951 131.298 L 806.951 131.298 L 806.951 131.298 Q 806.414 131.898 806.336 133.002 L 806.336 133.002 L 810.516 133.002 L 810.516 133.002 Q 810.496 131.898 809.939 131.298 L 809.939 131.298 L 809.939 131.298 Q 809.383 130.697 808.435 130.697 Z  M 808.855 139.897 L 808.855 139.897 L 808.855 139.897 Q 806.219 139.897 804.734 138.441 L 804.734 138.441 L 804.734 138.441 Q 803.25 136.986 803.25 134.32 L 803.25 134.32 L 803.25 134.32 Q 803.25 131.576 804.622 130.077 L 804.622 130.077 L 804.622 130.077 Q 805.994 128.578 808.416 128.578 L 808.416 128.578 L 808.416 128.578 Q 810.73 128.578 812.019 129.897 L 812.019 129.897 L 812.019 129.897 Q 813.309 131.215 813.309 133.539 L 813.309 133.539 L 813.309 134.984 L 806.268 134.984 L 806.268 134.984 Q 806.316 136.254 807.019 136.967 L 807.019 136.967 L 807.019 136.967 Q 807.723 137.68 808.992 137.68 L 808.992 137.68 L 808.992 137.68 Q 809.978 137.68 810.857 137.475 L 810.857 137.475 L 810.857 137.475 Q 811.736 137.27 812.693 136.82 L 812.693 136.82 L 812.693 139.125 L 812.693 139.125 Q 811.912 139.516 811.023 139.706 L 811.023 139.706 L 811.023 139.706 Q 810.135 139.897 808.855 139.897 Z  M 823.348 136.459 L 823.348 136.459 L 823.348 136.459 Q 823.348 138.139 822.181 139.018 L 822.181 139.018 L 822.181 139.018 Q 821.014 139.897 818.689 139.897 L 818.689 139.897 L 818.689 139.897 Q 817.498 139.897 816.658 139.735 L 816.658 139.735 L 816.658 139.735 Q 815.818 139.574 815.086 139.262 L 815.086 139.262 L 815.086 136.801 L 815.086 136.801 Q 815.916 137.191 816.956 137.455 L 816.956 137.455 L 816.956 137.455 Q 817.996 137.719 818.787 137.719 L 818.787 137.719 L 818.787 137.719 Q 820.408 137.719 820.408 136.781 L 820.408 136.781 L 820.408 136.781 Q 820.408 136.43 820.193 136.21 L 820.193 136.21 L 820.193 136.21 Q 819.978 135.99 819.451 135.712 L 819.451 135.712 L 819.451 135.712 Q 818.924 135.434 818.045 135.063 L 818.045 135.063 L 818.045 135.063 Q 816.785 134.535 816.194 134.086 L 816.194 134.086 L 816.194 134.086 Q 815.603 133.637 815.335 133.056 L 815.335 133.056 L 815.335 133.056 Q 815.066 132.475 815.066 131.625 L 815.066 131.625 L 815.066 131.625 Q 815.066 130.17 816.194 129.374 L 816.194 129.374 L 816.194 129.374 Q 817.322 128.578 819.393 128.578 L 819.393 128.578 L 819.393 128.578 Q 821.365 128.578 823.23 129.438 L 823.23 129.438 L 822.332 131.586 L 822.332 131.586 Q 821.512 131.234 820.799 131.01 L 820.799 131.01 L 820.799 131.01 Q 820.086 130.785 819.344 130.785 L 819.344 130.785 L 819.344 130.785 Q 818.025 130.785 818.025 131.498 L 818.025 131.498 L 818.025 131.498 Q 818.025 131.898 818.45 132.191 L 818.45 132.191 L 818.45 132.191 Q 818.875 132.484 820.31 133.061 L 820.31 133.061 L 820.31 133.061 Q 821.59 133.578 822.185 134.027 L 822.185 134.027 L 822.185 134.027 Q 822.781 134.477 823.064 135.063 L 823.064 135.063 L 823.064 135.063 Q 823.348 135.648 823.348 136.459 Z  M 833.289 136.459 L 833.289 136.459 L 833.289 136.459 Q 833.289 138.139 832.122 139.018 L 832.122 139.018 L 832.122 139.018 Q 830.955 139.897 828.631 139.897 L 828.631 139.897 L 828.631 139.897 Q 827.439 139.897 826.6 139.735 L 826.6 139.735 L 826.6 139.735 Q 825.76 139.574 825.027 139.262 L 825.027 139.262 L 825.027 136.801 L 825.027 136.801 Q 825.857 137.191 826.897 137.455 L 826.897 137.455 L 826.897 137.455 Q 827.937 137.719 828.728 137.719 L 828.728 137.719 L 828.728 137.719 Q 830.35 137.719 830.35 136.781 L 830.35 136.781 L 830.35 136.781 Q 830.35 136.43 830.135 136.21 L 830.135 136.21 L 830.135 136.21 Q 829.92 135.99 829.393 135.712 L 829.393 135.712 L 829.393 135.712 Q 828.865 135.434 827.986 135.063 L 827.986 135.063 L 827.986 135.063 Q 826.727 134.535 826.136 134.086 L 826.136 134.086 L 826.136 134.086 Q 825.545 133.637 825.276 133.056 L 825.276 133.056 L 825.276 133.056 Q 825.008 132.475 825.008 131.625 L 825.008 131.625 L 825.008 131.625 Q 825.008 130.17 826.136 129.374 L 826.136 129.374 L 826.136 129.374 Q 827.264 128.578 829.334 128.578 L 829.334 128.578 L 829.334 128.578 Q 831.307 128.578 833.172 129.438 L 833.172 129.438 L 832.273 131.586 L 832.273 131.586 Q 831.453 131.234 830.74 131.01 L 830.74 131.01 L 830.74 131.01 Q 830.027 130.785 829.285 130.785 L 829.285 130.785 L 829.285 130.785 Q 827.967 130.785 827.967 131.498 L 827.967 131.498 L 827.967 131.498 Q 827.967 131.898 828.392 132.191 L 828.392 132.191 L 828.392 132.191 Q 828.816 132.484 830.252 133.061 L 830.252 133.061 L 830.252 133.061 Q 831.531 133.578 832.127 134.027 L 832.127 134.027 L 832.127 134.027 Q 832.723 134.477 833.006 135.063 L 833.006 135.063 L 833.006 135.063 Q 833.289 135.648 833.289 136.459 Z  M 719.695 132.543 L 719.695 132.543 L 719.695 132.543 Q 719.695 135.063 718.802 136.767 L 718.802 136.767 L 718.802 136.767 Q 717.908 138.471 716.18 139.262 L 716.18 139.262 L 719.617 143.1 L 715.74 143.1 L 713.123 139.897 L 712.898 139.897 L 712.898 139.897 Q 709.617 139.897 707.859 137.992 L 707.859 137.992 L 707.859 137.992 Q 706.102 136.088 706.102 132.523 L 706.102 132.523 L 706.102 132.523 Q 706.102 128.959 707.864 127.079 L 707.864 127.079 L 707.864 127.079 Q 709.627 125.199 712.918 125.199 L 712.918 125.199 L 712.918 125.199 Q 716.209 125.199 717.952 127.094 L 717.952 127.094 L 717.952 127.094 Q 719.695 128.988 719.695 132.543 Z  M 709.275 132.543 L 709.275 132.543 L 709.275 132.543 Q 709.275 134.936 710.184 136.147 L 710.184 136.147 L 710.184 136.147 Q 711.092 137.357 712.898 137.357 L 712.898 137.357 L 712.898 137.357 Q 716.521 137.357 716.521 132.543 L 716.521 132.543 L 716.521 132.543 Q 716.521 127.719 712.918 127.719 L 712.918 127.719 L 712.918 127.719 Q 711.111 127.719 710.193 128.935 L 710.193 128.935 L 710.193 128.935 Q 709.275 130.15 709.275 132.543 Z  M 732.439 139.701 L 730.154 139.701 L 729.754 138.305 L 729.598 138.305 L 729.598 138.305 Q 729.119 139.066 728.24 139.482 L 728.24 139.482 L 728.24 139.482 Q 727.361 139.897 726.238 139.897 L 726.238 139.897 L 726.238 139.897 Q 724.314 139.897 723.338 138.866 L 723.338 138.866 L 723.338 138.866 Q 722.361 137.836 722.361 135.902 L 722.361 135.902 L 722.361 128.783 L 725.34 128.783 L 725.34 135.16 L 725.34 135.16 Q 725.34 136.342 725.76 136.933 L 725.76 136.933 L 725.76 136.933 Q 726.18 137.523 727.098 137.523 L 727.098 137.523 L 727.098 137.523 Q 728.348 137.523 728.904 136.689 L 728.904 136.689 L 728.904 136.689 Q 729.461 135.854 729.461 133.92 L 729.461 133.92 L 729.461 128.783 L 732.439 128.783 L 732.439 139.701 L 732.439 139.701 Z  M 735.437 125.961 L 735.437 125.961 L 735.437 125.961 Q 735.437 124.506 737.059 124.506 L 737.059 124.506 L 737.059 124.506 Q 738.68 124.506 738.68 125.961 L 738.68 125.961 L 738.68 125.961 Q 738.68 126.654 738.274 127.04 L 738.274 127.04 L 738.274 127.04 Q 737.869 127.426 737.059 127.426 L 737.059 127.426 L 737.059 127.426 Q 735.437 127.426 735.437 125.961 Z  M 738.543 128.783 L 738.543 139.701 L 735.564 139.701 L 735.564 128.783 L 738.543 128.783 L 738.543 128.783 Z  M 746.102 139.897 L 746.102 139.897 L 746.102 139.897 Q 741.004 139.897 741.004 134.301 L 741.004 134.301 L 741.004 134.301 Q 741.004 131.518 742.391 130.048 L 742.391 130.048 L 742.391 130.048 Q 743.777 128.578 746.365 128.578 L 746.365 128.578 L 746.365 128.578 Q 748.26 128.578 749.764 129.32 L 749.764 129.32 L 748.885 131.625 L 748.885 131.625 Q 748.182 131.342 747.576 131.161 L 747.576 131.161 L 747.576 131.161 Q 746.971 130.981 746.365 130.981 L 746.365 130.981 L 746.365 130.981 Q 744.041 130.981 744.041 134.281 L 744.041 134.281 L 744.041 134.281 Q 744.041 137.484 746.365 137.484 L 746.365 137.484 L 746.365 137.484 Q 747.225 137.484 747.957 137.255 L 747.957 137.255 L 747.957 137.255 Q 748.689 137.025 749.422 136.537 L 749.422 136.537 L 749.422 139.086 L 749.422 139.086 Q 748.699 139.545 747.962 139.721 L 747.962 139.721 L 747.962 139.721 Q 747.225 139.897 746.102 139.897 Z  M 754.773 133.764 L 754.812 133.764 L 756.111 132.104 L 759.168 128.783 L 762.527 128.783 L 758.191 133.52 L 762.791 139.701 L 759.353 139.701 L 756.209 135.277 L 754.93 136.303 L 754.93 139.701 L 751.951 139.701 L 751.951 124.506 L 754.93 124.506 L 754.93 131.283 L 754.773 133.764 L 754.773 133.764 Z " fill-rule="evenodd" fill="rgb(81,52,123)"/><g><path d=" M 302.423 98.337 L 276.116 98.337 L 276.116 60.755 C 276.116 58.688 277.807 56.997 279.874 56.997 L 294.907 56.997 C 296.034 56.997 297.162 57.561 297.913 58.5 L 309.188 72.969 C 309.751 73.721 309.939 74.473 309.939 75.224 L 309.939 90.821 C 309.939 94.955 306.557 98.337 302.423 98.337 Z " fill="rgb(255,193,7)"/><path d=" M 234.776 98.337 L 276.116 98.337 L 276.116 53.239 C 276.116 49.105 272.733 45.723 268.599 45.723 L 236.655 45.723 C 231.394 45.723 227.26 49.857 227.26 55.118 L 227.26 90.821 C 227.26 94.955 230.642 98.337 234.776 98.337 Z " fill="rgb(149,117,205)"/><g><circle vector-effect="non-scaling-stroke" cx="293.0276123720585" cy="98.33700546661194" r="9.39543420407523" fill="rgb(55,71,79)"/><circle vector-effect="non-scaling-stroke" cx="249.8086150333126" cy="98.33700546661194" r="9.39543420407523" fill="rgb(55,71,79)"/></g><g><circle vector-effect="non-scaling-stroke" cx="293.0276123720585" cy="98.33700546661194" r="4.697717102037586" fill="rgb(120,144,156)"/><circle vector-effect="non-scaling-stroke" cx="249.8086150333126" cy="98.33700546661194" r="4.697717102037615" fill="rgb(120,144,156)"/></g><path d=" M 302.423 79.546 L 295.658 79.546 C 295.095 79.546 294.719 79.358 294.343 78.982 L 291.712 76.352 C 291.336 75.976 290.961 75.788 290.397 75.788 L 283.632 75.788 C 282.505 75.788 281.753 75.036 281.753 73.909 L 281.753 62.634 C 281.753 61.507 282.505 60.755 283.632 60.755 L 293.967 60.755 C 294.531 60.755 295.095 60.943 295.47 61.507 L 303.926 71.654 C 304.114 72.03 304.302 72.406 304.302 72.781 L 304.302 77.667 C 304.302 78.795 303.55 79.546 302.423 79.546 Z " fill="rgb(69,90,100)"/><path d=" M 239.662 72.218 L 235.528 72.218 L 235.528 77.667 L 232.897 77.667 L 232.897 64.513 L 240.225 64.513 L 240.225 66.768 L 235.528 66.768 L 235.528 70.151 L 239.662 70.151 L 239.662 72.218 Z  M 246.614 72.781 L 245.299 72.781 L 245.299 77.667 L 242.668 77.667 L 242.668 64.513 L 246.99 64.513 C 249.245 64.513 251.124 65.641 251.124 68.46 C 251.124 71.278 249.433 72.03 249.245 72.218 L 251.5 77.667 L 248.681 77.667 L 246.614 72.781 Z  M 245.299 70.714 L 246.802 70.714 C 248.305 70.714 248.305 69.399 248.305 68.835 C 248.305 68.46 248.305 66.768 246.802 66.768 L 245.299 66.768 L 245.299 70.714 Z  M 260.519 72.03 L 256.385 72.03 L 256.385 75.6 L 261.271 75.6 L 261.271 77.667 L 253.755 77.667 L 253.755 64.513 L 261.271 64.513 L 261.271 66.768 L 256.385 66.768 L 256.385 69.963 L 260.519 69.963 L 260.519 72.03 Z  M 270.666 72.03 L 266.532 72.03 L 266.532 75.6 L 271.418 75.6 L 271.418 77.667 L 263.902 77.667 L 263.902 64.513 L 271.418 64.513 L 271.418 66.768 L 266.532 66.768 L 266.532 69.963 L 270.666 69.963 L 270.666 72.03 Z " fill="rgb(255,255,255)"/></g><path d=" M 580.18 135.609 L 580.18 138.109 L 571.957 138.109 L 571.957 123.832 L 580.18 123.832 L 580.18 126.313 L 574.984 126.313 L 574.984 129.447 L 579.818 129.447 L 579.818 131.928 L 574.984 131.928 L 574.984 135.609 L 580.18 135.609 L 580.18 135.609 Z  M 591.937 138.109 L 589.857 138.109 L 589.281 136.625 L 589.203 136.625 L 589.203 136.625 Q 588.451 137.572 587.655 137.938 L 587.655 137.938 L 587.655 137.938 Q 586.859 138.305 585.58 138.305 L 585.58 138.305 L 585.58 138.305 Q 584.008 138.305 583.104 137.406 L 583.104 137.406 L 583.104 137.406 Q 582.201 136.508 582.201 134.848 L 582.201 134.848 L 582.201 134.848 Q 582.201 133.109 583.417 132.284 L 583.417 132.284 L 583.417 132.284 Q 584.633 131.459 587.084 131.371 L 587.084 131.371 L 588.978 131.313 L 588.978 130.834 L 588.978 130.834 Q 588.978 129.174 587.279 129.174 L 587.279 129.174 L 587.279 129.174 Q 585.971 129.174 584.203 129.965 L 584.203 129.965 L 583.217 127.953 L 583.217 127.953 Q 585.102 126.967 587.396 126.967 L 587.396 126.967 L 587.396 126.967 Q 589.594 126.967 590.766 127.924 L 590.766 127.924 L 590.766 127.924 Q 591.937 128.881 591.937 130.834 L 591.937 130.834 L 591.937 138.109 L 591.937 138.109 Z  M 588.978 133.949 L 588.978 133.051 L 587.826 133.09 L 587.826 133.09 Q 586.527 133.129 585.893 133.559 L 585.893 133.559 L 585.893 133.559 Q 585.258 133.988 585.258 134.867 L 585.258 134.867 L 585.258 134.867 Q 585.258 136.127 586.703 136.127 L 586.703 136.127 L 586.703 136.127 Q 587.738 136.127 588.358 135.531 L 588.358 135.531 L 588.358 135.531 Q 588.978 134.936 588.978 133.949 L 588.978 133.949 L 588.978 133.949 Z  M 602.621 134.867 L 602.621 134.867 L 602.621 134.867 Q 602.621 136.547 601.454 137.426 L 601.454 137.426 L 601.454 137.426 Q 600.287 138.305 597.963 138.305 L 597.963 138.305 L 597.963 138.305 Q 596.771 138.305 595.932 138.144 L 595.932 138.144 L 595.932 138.144 Q 595.092 137.982 594.359 137.67 L 594.359 137.67 L 594.359 135.209 L 594.359 135.209 Q 595.189 135.6 596.229 135.863 L 596.229 135.863 L 596.229 135.863 Q 597.269 136.127 598.06 136.127 L 598.06 136.127 L 598.06 136.127 Q 599.682 136.127 599.682 135.189 L 599.682 135.189 L 599.682 135.189 Q 599.682 134.838 599.467 134.618 L 599.467 134.618 L 599.467 134.618 Q 599.252 134.398 598.725 134.12 L 598.725 134.12 L 598.725 134.12 Q 598.197 133.842 597.318 133.471 L 597.318 133.471 L 597.318 133.471 Q 596.059 132.943 595.468 132.494 L 595.468 132.494 L 595.468 132.494 Q 594.877 132.045 594.608 131.464 L 594.608 131.464 L 594.608 131.464 Q 594.34 130.883 594.34 130.033 L 594.34 130.033 L 594.34 130.033 Q 594.34 128.578 595.468 127.782 L 595.468 127.782 L 595.468 127.782 Q 596.596 126.986 598.666 126.986 L 598.666 126.986 L 598.666 126.986 Q 600.639 126.986 602.504 127.846 L 602.504 127.846 L 601.605 129.994 L 601.605 129.994 Q 600.785 129.643 600.072 129.418 L 600.072 129.418 L 600.072 129.418 Q 599.359 129.193 598.617 129.193 L 598.617 129.193 L 598.617 129.193 Q 597.299 129.193 597.299 129.906 L 597.299 129.906 L 597.299 129.906 Q 597.299 130.307 597.724 130.6 L 597.724 130.6 L 597.724 130.6 Q 598.148 130.893 599.584 131.469 L 599.584 131.469 L 599.584 131.469 Q 600.863 131.986 601.459 132.436 L 601.459 132.436 L 601.459 132.436 Q 602.055 132.885 602.338 133.471 L 602.338 133.471 L 602.338 133.471 Q 602.621 134.057 602.621 134.867 Z  M 607.719 138.031 L 603.383 127.191 L 606.644 127.191 L 608.705 133.334 L 608.705 133.334 Q 608.969 134.135 609.066 135.229 L 609.066 135.229 L 609.125 135.229 L 609.125 135.229 Q 609.232 134.223 609.545 133.334 L 609.545 133.334 L 611.566 127.191 L 614.76 127.191 L 610.141 139.506 L 610.141 139.506 Q 609.506 141.215 608.329 142.064 L 608.329 142.064 L 608.329 142.064 Q 607.152 142.914 605.58 142.914 L 605.58 142.914 L 605.58 142.914 Q 604.809 142.914 604.066 142.748 L 604.066 142.748 L 604.066 140.385 L 604.066 140.385 Q 604.603 140.512 605.238 140.512 L 605.238 140.512 L 605.238 140.512 Q 606.029 140.512 606.62 140.028 L 606.62 140.028 L 606.62 140.028 Q 607.211 139.545 607.543 138.568 L 607.543 138.568 L 607.719 138.031 L 607.719 138.031 Z  M 520.17 138.109 L 517.396 138.109 L 513.959 126.908 L 513.871 126.908 L 513.871 126.908 Q 514.057 130.326 514.057 131.469 L 514.057 131.469 L 514.057 138.109 L 511.352 138.109 L 511.352 123.832 L 515.473 123.832 L 518.852 134.75 L 518.91 134.75 L 522.494 123.832 L 526.615 123.832 L 526.615 138.109 L 523.793 138.109 L 523.793 131.352 L 523.793 131.352 Q 523.793 130.873 523.808 130.248 L 523.808 130.248 L 523.808 130.248 Q 523.822 129.623 523.939 126.928 L 523.939 126.928 L 523.852 126.928 L 520.17 138.109 L 520.17 138.109 Z  M 538.988 138.109 L 536.908 138.109 L 536.332 136.625 L 536.254 136.625 L 536.254 136.625 Q 535.502 137.572 534.706 137.938 L 534.706 137.938 L 534.706 137.938 Q 533.91 138.305 532.631 138.305 L 532.631 138.305 L 532.631 138.305 Q 531.059 138.305 530.155 137.406 L 530.155 137.406 L 530.155 137.406 Q 529.252 136.508 529.252 134.848 L 529.252 134.848 L 529.252 134.848 Q 529.252 133.109 530.468 132.284 L 530.468 132.284 L 530.468 132.284 Q 531.684 131.459 534.135 131.371 L 534.135 131.371 L 536.029 131.313 L 536.029 130.834 L 536.029 130.834 Q 536.029 129.174 534.33 129.174 L 534.33 129.174 L 534.33 129.174 Q 533.021 129.174 531.254 129.965 L 531.254 129.965 L 530.268 127.953 L 530.268 127.953 Q 532.152 126.967 534.447 126.967 L 534.447 126.967 L 534.447 126.967 Q 536.644 126.967 537.816 127.924 L 537.816 127.924 L 537.816 127.924 Q 538.988 128.881 538.988 130.834 L 538.988 130.834 L 538.988 138.109 L 538.988 138.109 Z  M 536.029 133.949 L 536.029 133.051 L 534.877 133.09 L 534.877 133.09 Q 533.578 133.129 532.943 133.559 L 532.943 133.559 L 532.943 133.559 Q 532.309 133.988 532.309 134.867 L 532.309 134.867 L 532.309 134.867 Q 532.309 136.127 533.754 136.127 L 533.754 136.127 L 533.754 136.127 Q 534.789 136.127 535.409 135.531 L 535.409 135.531 L 535.409 135.531 Q 536.029 134.936 536.029 133.949 L 536.029 133.949 L 536.029 133.949 Z  M 545.512 138.305 L 545.512 138.305 L 545.512 138.305 Q 543.588 138.305 542.489 136.811 L 542.489 136.811 L 542.489 136.811 Q 541.391 135.316 541.391 132.67 L 541.391 132.67 L 541.391 132.67 Q 541.391 129.984 542.509 128.485 L 542.509 128.485 L 542.509 128.485 Q 543.627 126.986 545.59 126.986 L 545.59 126.986 L 545.59 126.986 Q 547.65 126.986 548.734 128.588 L 548.734 128.588 L 548.832 128.588 L 548.832 128.588 Q 548.607 127.367 548.607 126.41 L 548.607 126.41 L 548.607 122.914 L 551.596 122.914 L 551.596 138.109 L 549.31 138.109 L 548.734 136.693 L 548.607 136.693 L 548.607 136.693 Q 547.592 138.305 545.512 138.305 Z  M 546.557 135.932 L 546.557 135.932 L 546.557 135.932 Q 547.699 135.932 548.231 135.268 L 548.231 135.268 L 548.231 135.268 Q 548.764 134.604 548.812 133.012 L 548.812 133.012 L 548.812 132.689 L 548.812 132.689 Q 548.812 130.932 548.27 130.17 L 548.27 130.17 L 548.27 130.17 Q 547.728 129.408 546.508 129.408 L 546.508 129.408 L 546.508 129.408 Q 545.512 129.408 544.96 130.253 L 544.96 130.253 L 544.96 130.253 Q 544.408 131.098 544.408 132.709 L 544.408 132.709 L 544.408 132.709 Q 544.408 134.32 544.965 135.126 L 544.965 135.126 L 544.965 135.126 Q 545.521 135.932 546.557 135.932 Z  M 559.232 129.105 L 559.232 129.105 L 559.232 129.105 Q 558.285 129.105 557.748 129.706 L 557.748 129.706 L 557.748 129.706 Q 557.211 130.307 557.133 131.41 L 557.133 131.41 L 561.312 131.41 L 561.312 131.41 Q 561.293 130.307 560.736 129.706 L 560.736 129.706 L 560.736 129.706 Q 560.18 129.105 559.232 129.105 Z  M 559.652 138.305 L 559.652 138.305 L 559.652 138.305 Q 557.016 138.305 555.531 136.85 L 555.531 136.85 L 555.531 136.85 Q 554.047 135.395 554.047 132.729 L 554.047 132.729 L 554.047 132.729 Q 554.047 129.984 555.419 128.485 L 555.419 128.485 L 555.419 128.485 Q 556.791 126.986 559.213 126.986 L 559.213 126.986 L 559.213 126.986 Q 561.527 126.986 562.816 128.305 L 562.816 128.305 L 562.816 128.305 Q 564.105 129.623 564.105 131.947 L 564.105 131.947 L 564.105 133.393 L 557.064 133.393 L 557.064 133.393 Q 557.113 134.662 557.816 135.375 L 557.816 135.375 L 557.816 135.375 Q 558.519 136.088 559.789 136.088 L 559.789 136.088 L 559.789 136.088 Q 560.775 136.088 561.654 135.883 L 561.654 135.883 L 561.654 135.883 Q 562.533 135.678 563.49 135.229 L 563.49 135.229 L 563.49 137.533 L 563.49 137.533 Q 562.709 137.924 561.82 138.114 L 561.82 138.114 L 561.82 138.114 Q 560.932 138.305 559.652 138.305 Z  M 447.055 138.109 L 444.281 138.109 L 440.844 126.908 L 440.756 126.908 L 440.756 126.908 Q 440.941 130.326 440.941 131.469 L 440.941 131.469 L 440.941 138.109 L 438.236 138.109 L 438.236 123.832 L 442.357 123.832 L 445.736 134.75 L 445.795 134.75 L 449.379 123.832 L 453.5 123.832 L 453.5 138.109 L 450.678 138.109 L 450.678 131.352 L 450.678 131.352 Q 450.678 130.873 450.692 130.248 L 450.692 130.248 L 450.692 130.248 Q 450.707 129.623 450.824 126.928 L 450.824 126.928 L 450.736 126.928 L 447.055 138.109 L 447.055 138.109 Z  M 459.232 132.631 L 459.232 132.631 L 459.232 132.631 Q 459.232 134.252 459.765 135.082 L 459.765 135.082 L 459.765 135.082 Q 460.297 135.912 461.498 135.912 L 461.498 135.912 L 461.498 135.912 Q 462.689 135.912 463.212 135.087 L 463.212 135.087 L 463.212 135.087 Q 463.734 134.262 463.734 132.631 L 463.734 132.631 L 463.734 132.631 Q 463.734 131.01 463.207 130.199 L 463.207 130.199 L 463.207 130.199 Q 462.68 129.389 461.478 129.389 L 461.478 129.389 L 461.478 129.389 Q 460.287 129.389 459.76 130.194 L 459.76 130.194 L 459.76 130.194 Q 459.232 131 459.232 132.631 Z  M 466.781 132.631 L 466.781 132.631 L 466.781 132.631 Q 466.781 135.297 465.375 136.801 L 465.375 136.801 L 465.375 136.801 Q 463.969 138.305 461.459 138.305 L 461.459 138.305 L 461.459 138.305 Q 459.887 138.305 458.685 137.616 L 458.685 137.616 L 458.685 137.616 Q 457.484 136.928 456.84 135.639 L 456.84 135.639 L 456.84 135.639 Q 456.195 134.35 456.195 132.631 L 456.195 132.631 L 456.195 132.631 Q 456.195 129.955 457.592 128.471 L 457.592 128.471 L 457.592 128.471 Q 458.988 126.986 461.518 126.986 L 461.518 126.986 L 461.518 126.986 Q 463.09 126.986 464.291 127.67 L 464.291 127.67 L 464.291 127.67 Q 465.492 128.354 466.137 129.633 L 466.137 129.633 L 466.137 129.633 Q 466.781 130.912 466.781 132.631 Z  M 475.316 126.986 L 475.316 126.986 L 475.316 126.986 Q 477.25 126.986 478.344 128.495 L 478.344 128.495 L 478.344 128.495 Q 479.437 130.004 479.437 132.631 L 479.437 132.631 L 479.437 132.631 Q 479.437 135.336 478.31 136.82 L 478.31 136.82 L 478.31 136.82 Q 477.182 138.305 475.238 138.305 L 475.238 138.305 L 475.238 138.305 Q 473.314 138.305 472.221 136.908 L 472.221 136.908 L 472.016 136.908 L 471.518 138.109 L 469.242 138.109 L 469.242 122.914 L 472.221 122.914 L 472.221 126.449 L 472.221 126.449 Q 472.221 127.123 472.103 128.607 L 472.103 128.607 L 472.221 128.607 L 472.221 128.607 Q 473.266 126.986 475.316 126.986 Z  M 474.359 129.369 L 474.359 129.369 L 474.359 129.369 Q 473.256 129.369 472.748 130.048 L 472.748 130.048 L 472.748 130.048 Q 472.24 130.727 472.221 132.289 L 472.221 132.289 L 472.221 132.611 L 472.221 132.611 Q 472.221 134.369 472.743 135.131 L 472.743 135.131 L 472.743 135.131 Q 473.266 135.893 474.398 135.893 L 474.398 135.893 L 474.398 135.893 Q 475.316 135.893 475.858 135.048 L 475.858 135.048 L 475.858 135.048 Q 476.4 134.203 476.4 132.592 L 476.4 132.592 L 476.4 132.592 Q 476.4 130.98 475.853 130.175 L 475.853 130.175 L 475.853 130.175 Q 475.307 129.369 474.359 129.369 Z  M 481.771 124.369 L 481.771 124.369 L 481.771 124.369 Q 481.771 122.914 483.393 122.914 L 483.393 122.914 L 483.393 122.914 Q 485.014 122.914 485.014 124.369 L 485.014 124.369 L 485.014 124.369 Q 485.014 125.063 484.608 125.448 L 484.608 125.448 L 484.608 125.448 Q 484.203 125.834 483.393 125.834 L 483.393 125.834 L 483.393 125.834 Q 481.771 125.834 481.771 124.369 Z  M 484.877 127.191 L 484.877 138.109 L 481.898 138.109 L 481.898 127.191 L 484.877 127.191 L 484.877 127.191 Z  M 490.98 122.914 L 490.98 138.109 L 488.002 138.109 L 488.002 122.914 L 490.98 122.914 L 490.98 122.914 Z  M 498.627 129.105 L 498.627 129.105 L 498.627 129.105 Q 497.68 129.105 497.143 129.706 L 497.143 129.706 L 497.143 129.706 Q 496.605 130.307 496.527 131.41 L 496.527 131.41 L 500.707 131.41 L 500.707 131.41 Q 500.687 130.307 500.131 129.706 L 500.131 129.706 L 500.131 129.706 Q 499.574 129.105 498.627 129.105 Z  M 499.047 138.305 L 499.047 138.305 L 499.047 138.305 Q 496.41 138.305 494.926 136.85 L 494.926 136.85 L 494.926 136.85 Q 493.441 135.395 493.441 132.729 L 493.441 132.729 L 493.441 132.729 Q 493.441 129.984 494.813 128.485 L 494.813 128.485 L 494.813 128.485 Q 496.185 126.986 498.607 126.986 L 498.607 126.986 L 498.607 126.986 Q 500.922 126.986 502.211 128.305 L 502.211 128.305 L 502.211 128.305 Q 503.5 129.623 503.5 131.947 L 503.5 131.947 L 503.5 133.393 L 496.459 133.393 L 496.459 133.393 Q 496.508 134.662 497.211 135.375 L 497.211 135.375 L 497.211 135.375 Q 497.914 136.088 499.184 136.088 L 499.184 136.088 L 499.184 136.088 Q 500.17 136.088 501.049 135.883 L 501.049 135.883 L 501.049 135.883 Q 501.928 135.678 502.885 135.229 L 502.885 135.229 L 502.885 137.533 L 502.885 137.533 Q 502.103 137.924 501.215 138.114 L 501.215 138.114 L 501.215 138.114 Q 500.326 138.305 499.047 138.305 Z " fill-rule="evenodd" fill="rgb(81,52,123)"/><path d=" M 70.231 84.796 C 75.023 84.796 79.815 82.984 83.453 79.381 C 90.747 72.155 90.747 60.41 83.453 53.184 C 76.158 45.958 64.303 45.958 57.008 53.184 C 49.714 60.41 49.714 72.155 57.008 79.381 C 60.516 82.852 65.272 84.8 70.231 84.796 L 70.231 84.796 Z  M 70.231 50.61 C 74.291 50.61 78.333 52.135 81.413 55.186 C 87.591 61.306 87.591 71.24 81.413 77.36 C 75.235 83.48 65.207 83.48 59.029 77.36 C 52.851 71.24 52.851 61.306 59.029 55.186 C 62.004 52.252 66.033 50.607 70.231 50.61 Z  M 57.393 65.043 C 58.035 65.043 58.599 64.624 58.779 64.014 C 59.048 63.041 59.472 62.088 59.992 61.211 C 60.396 60.544 60.165 59.667 59.491 59.266 C 58.817 58.866 57.932 59.095 57.528 59.762 C 56.874 60.849 56.373 62.031 56.027 63.251 C 55.815 64.014 56.258 64.795 57.028 65.005 C 57.124 65.024 57.259 65.043 57.393 65.043 L 57.393 65.043 Z  M 79.7 59.266 C 80.065 59.266 80.431 59.133 80.72 58.847 C 80.988 58.581 81.139 58.221 81.139 57.846 C 81.139 57.47 80.988 57.11 80.72 56.845 C 75.651 51.809 67.663 51.109 61.781 55.186 C 61.127 55.644 60.973 56.521 61.435 57.169 C 61.897 57.817 62.782 57.97 63.437 57.512 C 68.177 54.228 74.613 54.791 78.699 58.847 C 78.959 59.119 79.322 59.271 79.7 59.266 L 79.7 59.266 Z  M 29.852 99.21 L 44.999 84.205 C 46.572 82.646 48.996 82.305 50.946 83.366 L 52.774 81.555 C 44.691 72.498 45.018 58.618 53.756 49.962 C 62.84 40.963 77.602 40.963 86.686 49.962 C 95.77 58.961 95.77 73.585 86.686 82.584 C 82.279 86.95 76.447 89.334 70.211 89.334 C 64.476 89.334 59.048 87.293 54.795 83.556 L 52.967 85.368 C 54.006 87.255 53.736 89.677 52.12 91.259 L 36.973 106.264 C 35.991 107.237 34.702 107.732 33.412 107.732 C 32.123 107.732 30.833 107.237 29.852 106.264 C 27.889 104.339 27.889 101.155 29.852 99.21 L 29.852 99.21 Z  M 84.665 80.582 C 92.633 72.689 92.633 59.857 84.665 51.983 C 80.816 48.17 75.677 46.053 70.231 46.053 C 64.784 46.053 59.645 48.151 55.796 51.983 C 47.828 59.876 47.828 72.708 55.796 80.582 C 59.645 84.395 64.784 86.512 70.231 86.512 C 75.696 86.512 80.816 84.395 84.665 80.582 Z  M 31.892 104.262 C 32.739 105.101 34.125 105.101 34.971 104.262 L 50.099 89.257 C 50.946 88.418 50.946 87.046 50.099 86.207 C 49.676 85.787 49.117 85.578 48.559 85.578 C 48.001 85.578 47.443 85.787 47.02 86.207 L 31.873 101.212 C 31.045 102.07 31.045 103.423 31.892 104.262 L 31.892 104.262 Z " fill="rgb(198,160,255)"/><g><path d=" M 973.299 86.603 L 973.299 65.192 L 979.458 65.192 L 979.458 86.685 L 987.295 78.971 L 989.256 77.041 L 993.174 80.9 L 991.213 82.826 L 976.379 97.435 L 961.541 82.826 L 959.58 80.9 L 963.781 77.041 L 965.739 78.971 L 973.299 86.606 L 973.299 86.603 Z  M 1015.01 82.55 C 1015.289 77.868 1013.891 73.459 1010.812 70.15 C 1007.684 66.832 1003.333 64.94 998.774 64.915 L 997.652 64.915 C 996.482 64.891 995.463 64.11 995.135 62.986 C 992.615 54.995 985.055 49.207 976.376 49.207 C 970.5 49.207 965.18 51.69 961.541 56.095 C 957.902 60.507 956.221 66.018 957.063 71.806 C 954.264 70.703 950.905 71.253 948.384 72.906 C 945.864 74.835 944.183 77.591 944.183 80.623 C 940.775 80.907 937.543 82.257 934.945 84.482 C 932.708 86.961 931.306 90.267 931.306 93.576 C 931.306 96.881 932.708 100.19 935.228 102.67 C 937.686 105.112 941.001 106.497 944.466 106.528 L 1008.292 106.528 C 1011.756 106.496 1015.072 105.112 1017.53 102.67 C 1020.047 100.187 1021.448 96.881 1021.448 93.576 C 1021.463 89.004 1018.997 84.784 1015.007 82.553 L 1015.01 82.55 Z  M 999.613 59.404 C 995.974 50.034 986.736 43.693 976.379 43.693 C 963.587 43.67 952.838 53.3 951.461 66.018 C 945.864 66.845 941.387 70.7 939.426 75.938 C 931.306 78.144 925.71 85.309 925.71 93.576 C 925.71 98.534 927.668 103.223 931.306 106.528 C 934.668 110.11 939.426 112.04 944.466 112.04 L 1008.292 112.04 C 1013.329 112.04 1018.089 110.11 1021.448 106.528 C 1025.087 103.219 1027.048 98.534 1027.048 93.576 C 1027.048 88.338 1024.528 83.103 1020.606 79.521 C 1019.767 68.774 1010.812 59.954 999.613 59.404 Z " fill-rule="evenodd" fill="rgb(180,131,255)"/><rect x="919.818" y="21.848" width="113.121" height="113.121" transform="matrix(1,0,0,1,0,0)" fill="none"/></g><g style="opacity:0.45;" filter="url(#Nm1ADV6WTo86nwyaKk7XoH7aJb47M3AV)"><path d=" M 991.421 86.603 L 991.421 65.192 L 997.579 65.192 L 997.579 86.685 L 1005.416 78.971 L 1007.377 77.041 L 1011.295 80.9 L 1009.335 82.826 L 994.5 97.435 L 979.662 82.826 L 977.701 80.9 L 981.903 77.041 L 983.86 78.971 L 991.421 86.606 L 991.421 86.603 Z  M 1033.131 82.55 C 1033.411 77.868 1032.012 73.459 1028.933 70.15 C 1025.805 66.832 1021.455 64.94 1016.895 64.915 L 1015.773 64.915 C 1014.603 64.891 1013.584 64.11 1013.256 62.986 C 1010.736 54.995 1003.176 49.207 994.497 49.207 C 988.621 49.207 983.301 51.69 979.662 56.095 C 976.024 60.507 974.342 66.018 975.185 71.806 C 972.385 70.703 969.026 71.253 966.506 72.906 C 963.986 74.835 962.304 77.591 962.304 80.623 C 958.896 80.907 955.664 82.257 953.066 84.482 C 950.829 86.961 949.427 90.267 949.427 93.576 C 949.427 96.881 950.829 100.19 953.349 102.67 C 955.807 105.112 959.122 106.497 962.587 106.528 L 1026.413 106.528 C 1029.878 106.496 1033.193 105.112 1035.651 102.67 C 1038.168 100.187 1039.569 96.881 1039.569 93.576 C 1039.584 89.004 1037.118 84.784 1033.128 82.553 L 1033.131 82.55 Z  M 1017.734 59.404 C 1014.095 50.034 1004.857 43.693 994.5 43.693 C 981.708 43.67 970.959 53.3 969.582 66.018 C 963.986 66.845 959.508 70.7 957.547 75.938 C 949.427 78.144 943.831 85.309 943.831 93.576 C 943.831 98.534 945.789 103.223 949.427 106.528 C 952.79 110.11 957.547 112.04 962.587 112.04 L 1026.413 112.04 C 1031.45 112.04 1036.21 110.11 1039.569 106.528 C 1043.208 103.219 1045.169 98.534 1045.169 93.576 C 1045.169 88.338 1042.649 83.103 1038.727 79.521 C 1037.888 68.774 1028.933 59.954 1017.734 59.404 Z " fill-rule="evenodd" fill="rgb(180,131,255)"/><rect x="937.939" y="21.848" width="113.121" height="113.121" transform="matrix(1,0,0,1,0,0)" fill="none"/></g><defs><filter id="Nm1ADV6WTo86nwyaKk7XoH7aJb47M3AV" x="-200%" y="-200%" width="400%" height="400%" filterUnits="objectBoundingBox" color-interpolation-filters="sRGB"><feGaussianBlur xmlns="http://www.w3.org/2000/svg" stdDeviation="3.2631428877576614"/></filter></defs><g style="opacity:0.34;" filter="url(#2KdkEj2wnMlynlJHjC4FX1FlAksNCvXA)"><path d=" M 1012.421 86.603 L 1012.421 65.192 L 1018.579 65.192 L 1018.579 86.685 L 1026.416 78.971 L 1028.377 77.041 L 1032.295 80.9 L 1030.335 82.826 L 1015.5 97.435 L 1000.662 82.826 L 998.701 80.9 L 1002.903 77.041 L 1004.86 78.971 L 1012.421 86.606 L 1012.421 86.603 Z  M 1054.131 82.55 C 1054.411 77.868 1053.012 73.459 1049.933 70.15 C 1046.805 66.832 1042.455 64.94 1037.895 64.915 L 1036.773 64.915 C 1035.603 64.891 1034.584 64.11 1034.256 62.986 C 1031.736 54.995 1024.176 49.207 1015.497 49.207 C 1009.621 49.207 1004.301 51.69 1000.662 56.095 C 997.024 60.507 995.342 66.018 996.185 71.806 C 993.385 70.703 990.026 71.253 987.506 72.906 C 984.986 74.835 983.304 77.591 983.304 80.623 C 979.896 80.907 976.664 82.257 974.066 84.482 C 971.829 86.961 970.427 90.267 970.427 93.576 C 970.427 96.881 971.829 100.19 974.349 102.67 C 976.807 105.112 980.122 106.497 983.587 106.528 L 1047.413 106.528 C 1050.878 106.496 1054.193 105.112 1056.651 102.67 C 1059.168 100.187 1060.569 96.881 1060.569 93.576 C 1060.584 89.004 1058.118 84.784 1054.128 82.553 L 1054.131 82.55 Z  M 1038.734 59.404 C 1035.095 50.034 1025.857 43.693 1015.5 43.693 C 1002.708 43.67 991.959 53.3 990.582 66.018 C 984.986 66.845 980.508 70.7 978.547 75.938 C 970.427 78.144 964.831 85.309 964.831 93.576 C 964.831 98.534 966.789 103.223 970.427 106.528 C 973.79 110.11 978.547 112.04 983.587 112.04 L 1047.413 112.04 C 1052.45 112.04 1057.21 110.11 1060.569 106.528 C 1064.208 103.219 1066.169 98.534 1066.169 93.576 C 1066.169 88.338 1063.649 83.103 1059.727 79.521 C 1058.888 68.774 1049.933 59.954 1038.734 59.404 Z " fill-rule="evenodd" fill="rgb(180,131,255)"/><rect x="958.939" y="21.848" width="113.121" height="113.121" transform="matrix(1,0,0,1,0,0)" fill="none"/></g><defs><filter id="2KdkEj2wnMlynlJHjC4FX1FlAksNCvXA" x="-200%" y="-200%" width="400%" height="400%" filterUnits="objectBoundingBox" color-interpolation-filters="sRGB"><feGaussianBlur xmlns="http://www.w3.org/2000/svg" stdDeviation="5.882244416089469"/></filter></defs><path d=" M 540.114 46.148 L 513.765 46.148 C 510.021 46.148 506.962 49.191 506.962 52.951 L 506.962 103.866 C 506.962 107.609 510.005 110.668 513.765 110.668 L 540.114 110.668 C 543.858 110.668 546.917 107.625 546.917 103.866 L 546.917 52.935 C 546.917 49.191 543.874 46.148 540.114 46.148 L 540.114 46.148 Z  M 544.4 103.85 C 544.4 106.208 542.472 108.135 540.114 108.135 L 513.765 108.135 C 511.407 108.135 509.479 106.208 509.479 103.85 L 509.479 52.935 C 509.479 50.577 511.407 48.649 513.765 48.649 L 540.114 48.649 C 542.472 48.649 544.4 50.577 544.4 52.935 L 544.4 103.85 L 544.4 103.85 Z  M 512.076 96.458 L 541.819 96.458 L 541.819 54.974 L 512.076 54.974 L 512.076 96.458 Z  M 513.334 56.232 L 540.576 56.232 L 540.576 95.199 L 513.334 95.199 L 513.334 56.232 L 513.334 56.232 Z  M 526.939 98.863 C 524.995 98.864 523.418 100.441 523.419 102.386 C 523.419 104.331 524.996 105.907 526.941 105.906 C 528.886 105.906 530.462 104.329 530.462 102.384 C 530.461 100.439 528.884 98.863 526.939 98.863 L 526.939 98.863 Z  M 526.939 104.646 C 525.697 104.646 524.677 103.627 524.677 102.384 C 524.677 101.142 525.697 100.122 526.939 100.122 C 528.182 100.122 529.202 101.142 529.202 102.384 C 529.202 103.627 528.198 104.646 526.939 104.646 Z  M 526.939 53.699 C 527.657 53.699 528.32 53.315 528.678 52.694 C 529.037 52.072 529.036 51.306 528.677 50.685 C 528.317 50.063 527.654 49.681 526.936 49.682 C 525.827 49.682 524.928 50.583 524.929 51.692 C 524.93 52.802 525.83 53.7 526.939 53.699 L 526.939 53.699 Z  M 526.939 50.943 C 527.242 50.943 527.515 51.126 527.631 51.406 C 527.747 51.685 527.683 52.007 527.469 52.222 C 527.255 52.436 526.933 52.5 526.653 52.384 C 526.373 52.268 526.191 51.995 526.191 51.692 C 526.207 51.278 526.541 50.943 526.939 50.943 Z " fill="rgb(180,131,255)"/><path d=" M 795.683 55.877 C 792.359 52.553 790.76 48.009 791.235 43.355 C 788.035 43.815 785.069 45.297 782.781 47.582 C 780.406 49.956 778.997 52.933 778.554 56.036 C 783.209 55.561 787.752 57.16 791.077 60.484 C 794.401 63.809 796 68.352 795.525 73.007 C 798.725 72.547 801.691 71.064 803.979 68.78 C 806.354 66.405 807.763 63.429 808.206 60.326 C 807.668 60.389 807.114 60.405 806.575 60.405 C 802.507 60.405 798.612 58.806 795.683 55.877 L 795.683 55.877 Z  M 794.1 43.212 C 794.1 43.276 794.1 43.323 794.085 43.387 C 793.61 47.281 794.908 51.096 797.678 53.867 C 800.449 56.637 804.264 57.951 808.143 57.46 C 808.206 57.46 808.253 57.445 808.317 57.445 C 808.142 53.727 806.583 50.209 803.947 47.582 C 801.328 44.944 797.814 43.384 794.1 43.212 L 794.1 43.212 Z  M 783.304 87.429 L 785.314 89.439 L 800.037 74.716 C 798.375 75.381 796.586 75.809 794.765 75.951 L 783.304 87.429 Z  M 779.805 69.73 L 742.317 107.218 L 744.327 109.228 L 781.815 71.74 C 781.451 71.439 781.103 71.107 780.771 70.774 C 780.438 70.442 780.121 70.094 779.805 69.73 L 779.805 69.73 Z  M 764.132 68.257 L 775.61 56.78 C 775.752 54.959 776.164 53.186 776.844 51.508 L 762.121 66.231 L 764.132 68.257 Z  M 758.243 80.732 L 760.253 82.743 L 777.24 65.756 C 776.797 64.806 776.433 63.825 776.164 62.811 L 758.243 80.732 L 758.243 80.732 Z  M 768.628 91.244 L 770.639 93.255 L 788.559 75.334 C 787.546 75.049 786.581 74.685 785.631 74.226 L 768.628 91.244 L 768.628 91.244 Z  M 778.586 58.901 C 778.523 58.901 778.475 58.917 778.412 58.917 C 778.586 62.635 780.145 66.152 782.781 68.78 C 785.408 71.416 788.926 72.974 792.644 73.149 C 792.644 73.086 792.644 73.038 792.66 72.975 C 793.135 69.08 791.836 65.265 789.066 62.511 C 786.329 59.736 782.451 58.4 778.586 58.901 L 778.586 58.901 Z  M 744.858 83.507 L 758.46 69.905 L 760.475 71.921 L 746.873 85.521 L 744.858 83.506 L 744.858 83.507 Z  M 764.941 105.777 L 778.542 92.178 L 780.557 94.192 L 766.956 107.792 L 764.939 105.777 L 764.941 105.777 Z " fill="rgb(180,131,255)"/></g></svg>